<?xml version="1.0" encoding="UTF-8" standalone="no"?>
<!DOCTYPE svg PUBLIC "-//W3C//DTD SVG 1.1//EN"
 "http://www.w3.org/Graphics/SVG/1.1/DTD/svg11.dtd">
<!-- Generated by graphviz version 2.36.0 (20140111.2315)
 -->
<!-- Title: controllers_diagram Pages: 1 -->
<svg width="844pt" height="846pt"
 viewBox="0.00 0.00 844.00 846.00" xmlns="http://www.w3.org/2000/svg" xmlns:xlink="http://www.w3.org/1999/xlink">
<g id="graph0" class="graph" transform="scale(1 1) rotate(0) translate(4 842)">
<title>controllers_diagram</title>
<polygon fill="none" stroke="none" points="-4,4 -4,-842 840,-842 840,4 -4,4"/>
<!-- _diagram_info -->
<g id="node1" class="node"><title>_diagram_info</title>
<text text-anchor="start" x="512" y="-387.6" font-family="Times,serif" font-size="13.00">Controllers diagram</text>
<text text-anchor="start" x="512" y="-373.6" font-family="Times,serif" font-size="13.00">Date: Oct 26 2016 &#45; 14:30</text>
<text text-anchor="start" x="512" y="-359.6" font-family="Times,serif" font-size="13.00">Migration version: 20160913101216</text>
<text text-anchor="start" x="512" y="-345.6" font-family="Times,serif" font-size="13.00">Generated by RailRoady 1.5.2</text>
<text text-anchor="start" x="512" y="-331.6" font-family="Times,serif" font-size="13.00">http://railroady.prestonlee.com</text>
</g>
<!-- ApplicationController -->
<g id="node2" class="node"><title>ApplicationController</title>
<path fill="none" stroke="black" d="M588,-576.5C588,-576.5 750,-576.5 750,-576.5 756,-576.5 762,-582.5 762,-588.5 762,-588.5 762,-702.5 762,-702.5 762,-708.5 756,-714.5 750,-714.5 750,-714.5 588,-714.5 588,-714.5 582,-714.5 576,-708.5 576,-702.5 576,-702.5 576,-588.5 576,-588.5 576,-582.5 582,-576.5 588,-576.5"/>
<text text-anchor="middle" x="669" y="-699.3" font-family="Times,serif" font-size="14.00">ApplicationController</text>
<polyline fill="none" stroke="black" points="576,-691.5 762,-691.5 "/>
<polyline fill="none" stroke="black" points="576,-667.5 762,-667.5 "/>
<text text-anchor="start" x="584" y="-652.3" font-family="Times,serif" font-size="14.00">authenticate_user_from_token!</text>
<text text-anchor="start" x="584" y="-637.3" font-family="Times,serif" font-size="14.00">claims</text>
<text text-anchor="start" x="584" y="-622.3" font-family="Times,serif" font-size="14.00">invalid_authentication</text>
<text text-anchor="start" x="584" y="-607.3" font-family="Times,serif" font-size="14.00">jwt_token</text>
<polyline fill="none" stroke="black" points="576,-599.5 762,-599.5 "/>
<text text-anchor="start" x="584" y="-584.3" font-family="Times,serif" font-size="14.00">_layout</text>
</g>
<!-- Api::V1::GradesController -->
<g id="node3" class="node"><title>Api::V1::GradesController</title>
<path fill="none" stroke="black" d="M390,-684.5C390,-684.5 528,-684.5 528,-684.5 534,-684.5 540,-690.5 540,-696.5 540,-696.5 540,-825.5 540,-825.5 540,-831.5 534,-837.5 528,-837.5 528,-837.5 390,-837.5 390,-837.5 384,-837.5 378,-831.5 378,-825.5 378,-825.5 378,-696.5 378,-696.5 378,-690.5 384,-684.5 390,-684.5"/>
<text text-anchor="middle" x="459" y="-822.3" font-family="Times,serif" font-size="14.00">Api::V1::GradesController</text>
<polyline fill="none" stroke="black" points="378,-814.5 540,-814.5 "/>
<text text-anchor="start" x="386" y="-799.3" font-family="Times,serif" font-size="14.00">create</text>
<text text-anchor="start" x="386" y="-784.3" font-family="Times,serif" font-size="14.00">index</text>
<text text-anchor="start" x="386" y="-769.3" font-family="Times,serif" font-size="14.00">show</text>
<text text-anchor="start" x="386" y="-754.3" font-family="Times,serif" font-size="14.00">update</text>
<polyline fill="none" stroke="black" points="378,-746.5 540,-746.5 "/>
<polyline fill="none" stroke="black" points="378,-722.5 540,-722.5 "/>
<text text-anchor="start" x="386" y="-707.3" font-family="Times,serif" font-size="14.00">_layout</text>
<text text-anchor="start" x="386" y="-692.3" font-family="Times,serif" font-size="14.00">grade_params</text>
</g>
<!-- Api::V1::StudentsController -->
<g id="node4" class="node"><title>Api::V1::StudentsController</title>
<path fill="none" stroke="black" d="M678,-18.5C678,-18.5 824,-18.5 824,-18.5 830,-18.5 836,-24.5 836,-30.5 836,-30.5 836,-114.5 836,-114.5 836,-120.5 830,-126.5 824,-126.5 824,-126.5 678,-126.5 678,-126.5 672,-126.5 666,-120.5 666,-114.5 666,-114.5 666,-30.5 666,-30.5 666,-24.5 672,-18.5 678,-18.5"/>
<text text-anchor="middle" x="751" y="-111.3" font-family="Times,serif" font-size="14.00">Api::V1::StudentsController</text>
<polyline fill="none" stroke="black" points="666,-103.5 836,-103.5 "/>
<text text-anchor="start" x="674" y="-88.3" font-family="Times,serif" font-size="14.00">index</text>
<polyline fill="none" stroke="black" points="666,-80.5 836,-80.5 "/>
<polyline fill="none" stroke="black" points="666,-56.5 836,-56.5 "/>
<text text-anchor="start" x="674" y="-41.3" font-family="Times,serif" font-size="14.00">_layout</text>
<text text-anchor="start" x="674" y="-26.3" font-family="Times,serif" font-size="14.00">query_params</text>
</g>
<!-- Api::V1::EventsController -->
<g id="node5" class="node"><title>Api::V1::EventsController</title>
<path fill="none" stroke="black" d="M480,-0.5C480,-0.5 617,-0.5 617,-0.5 623,-0.5 629,-6.5 629,-12.5 629,-12.5 629,-126.5 629,-126.5 629,-132.5 623,-138.5 617,-138.5 617,-138.5 480,-138.5 480,-138.5 474,-138.5 468,-132.5 468,-126.5 468,-126.5 468,-12.5 468,-12.5 468,-6.5 474,-0.5 480,-0.5"/>
<text text-anchor="middle" x="548.5" y="-123.3" font-family="Times,serif" font-size="14.00">Api::V1::EventsController</text>
<polyline fill="none" stroke="black" points="468,-115.5 629,-115.5 "/>
<text text-anchor="start" x="476" y="-100.3" font-family="Times,serif" font-size="14.00">create</text>
<text text-anchor="start" x="476" y="-85.3" font-family="Times,serif" font-size="14.00">index</text>
<polyline fill="none" stroke="black" points="468,-77.5 629,-77.5 "/>
<polyline fill="none" stroke="black" points="468,-53.5 629,-53.5 "/>
<text text-anchor="start" x="476" y="-38.3" font-family="Times,serif" font-size="14.00">_layout</text>
<text text-anchor="start" x="476" y="-23.3" font-family="Times,serif" font-size="14.00">event_params</text>
<text text-anchor="start" x="476" y="-8.3" font-family="Times,serif" font-size="14.00">query_params</text>
</g>
<!-- Api::V1::TeachersController -->
<g id="node6" class="node"><title>Api::V1::TeachersController</title>
<path fill="none" stroke="black" d="M174,-684.5C174,-684.5 323,-684.5 323,-684.5 329,-684.5 335,-690.5 335,-696.5 335,-696.5 335,-780.5 335,-780.5 335,-786.5 329,-792.5 323,-792.5 323,-792.5 174,-792.5 174,-792.5 168,-792.5 162,-786.5 162,-780.5 162,-780.5 162,-696.5 162,-696.5 162,-690.5 168,-684.5 174,-684.5"/>
<text text-anchor="middle" x="248.5" y="-777.3" font-family="Times,serif" font-size="14.00">Api::V1::TeachersController</text>
<polyline fill="none" stroke="black" points="162,-769.5 335,-769.5 "/>
<text text-anchor="start" x="170" y="-754.3" font-family="Times,serif" font-size="14.00">index</text>
<polyline fill="none" stroke="black" points="162,-746.5 335,-746.5 "/>
<polyline fill="none" stroke="black" points="162,-722.5 335,-722.5 "/>
<text text-anchor="start" x="170" y="-707.3" font-family="Times,serif" font-size="14.00">_layout</text>
<text text-anchor="start" x="170" y="-692.3" font-family="Times,serif" font-size="14.00">teacher_params</text>
</g>
<!-- Api::V1::Receivers::ReceiversGroupsController -->
<g id="node7" class="node"><title>Api::V1::Receivers::ReceiversGroupsController</title>
<path fill="none" stroke="black" d="M210,-288.5C210,-288.5 464,-288.5 464,-288.5 470,-288.5 476,-294.5 476,-300.5 476,-300.5 476,-384.5 476,-384.5 476,-390.5 470,-396.5 464,-396.5 464,-396.5 210,-396.5 210,-396.5 204,-396.5 198,-390.5 198,-384.5 198,-384.5 198,-300.5 198,-300.5 198,-294.5 204,-288.5 210,-288.5"/>
<text text-anchor="middle" x="337" y="-381.3" font-family="Times,serif" font-size="14.00">Api::V1::Receivers::ReceiversGroupsController</text>
<polyline fill="none" stroke="black" points="198,-373.5 476,-373.5 "/>
<text text-anchor="start" x="206" y="-358.3" font-family="Times,serif" font-size="14.00">index</text>
<polyline fill="none" stroke="black" points="198,-350.5 476,-350.5 "/>
<polyline fill="none" stroke="black" points="198,-326.5 476,-326.5 "/>
<text text-anchor="start" x="206" y="-311.3" font-family="Times,serif" font-size="14.00">_layout</text>
<text text-anchor="start" x="206" y="-296.3" font-family="Times,serif" font-size="14.00">query_params</text>
</g>
<!-- Api::V1::Receivers::ReceiversTeachersController -->
<g id="node8" class="node"><title>Api::V1::Receivers::ReceiversTeachersController</title>
<path fill="none" stroke="black" d="M444,-432.5C444,-432.5 707,-432.5 707,-432.5 713,-432.5 719,-438.5 719,-444.5 719,-444.5 719,-528.5 719,-528.5 719,-534.5 713,-540.5 707,-540.5 707,-540.5 444,-540.5 444,-540.5 438,-540.5 432,-534.5 432,-528.5 432,-528.5 432,-444.5 432,-444.5 432,-438.5 438,-432.5 444,-432.5"/>
<text text-anchor="middle" x="575.5" y="-525.3" font-family="Times,serif" font-size="14.00">Api::V1::Receivers::ReceiversTeachersController</text>
<polyline fill="none" stroke="black" points="432,-517.5 719,-517.5 "/>
<text text-anchor="start" x="440" y="-502.3" font-family="Times,serif" font-size="14.00">index</text>
<polyline fill="none" stroke="black" points="432,-494.5 719,-494.5 "/>
<polyline fill="none" stroke="black" points="432,-470.5 719,-470.5 "/>
<text text-anchor="start" x="440" y="-455.3" font-family="Times,serif" font-size="14.00">_layout</text>
<text text-anchor="start" x="440" y="-440.3" font-family="Times,serif" font-size="14.00">query_params</text>
</g>
<!-- Api::V1::Receivers::ReceiversLessonsController -->
<g id="node9" class="node"><title>Api::V1::Receivers::ReceiversLessonsController</title>
<path fill="none" stroke="black" d="M516,-180.5C516,-180.5 773,-180.5 773,-180.5 779,-180.5 785,-186.5 785,-192.5 785,-192.5 785,-276.5 785,-276.5 785,-282.5 779,-288.5 773,-288.5 773,-288.5 516,-288.5 516,-288.5 510,-288.5 504,-282.5 504,-276.5 504,-276.5 504,-192.5 504,-192.5 504,-186.5 510,-180.5 516,-180.5"/>
<text text-anchor="middle" x="644.5" y="-273.3" font-family="Times,serif" font-size="14.00">Api::V1::Receivers::ReceiversLessonsController</text>
<polyline fill="none" stroke="black" points="504,-265.5 785,-265.5 "/>
<text text-anchor="start" x="512" y="-250.3" font-family="Times,serif" font-size="14.00">index</text>
<polyline fill="none" stroke="black" points="504,-242.5 785,-242.5 "/>
<polyline fill="none" stroke="black" points="504,-218.5 785,-218.5 "/>
<text text-anchor="start" x="512" y="-203.3" font-family="Times,serif" font-size="14.00">_layout</text>
<text text-anchor="start" x="512" y="-188.3" font-family="Times,serif" font-size="14.00">query_params</text>
</g>
<!-- Api::V1::Receivers::ReceiversStudentsController -->
<g id="node10" class="node"><title>Api::V1::Receivers::ReceiversStudentsController</title>
<path fill="none" stroke="black" d="M156,-144.5C156,-144.5 416,-144.5 416,-144.5 422,-144.5 428,-150.5 428,-156.5 428,-156.5 428,-240.5 428,-240.5 428,-246.5 422,-252.5 416,-252.5 416,-252.5 156,-252.5 156,-252.5 150,-252.5 144,-246.5 144,-240.5 144,-240.5 144,-156.5 144,-156.5 144,-150.5 150,-144.5 156,-144.5"/>
<text text-anchor="middle" x="286" y="-237.3" font-family="Times,serif" font-size="14.00">Api::V1::Receivers::ReceiversStudentsController</text>
<polyline fill="none" stroke="black" points="144,-229.5 428,-229.5 "/>
<text text-anchor="start" x="152" y="-214.3" font-family="Times,serif" font-size="14.00">index</text>
<polyline fill="none" stroke="black" points="144,-206.5 428,-206.5 "/>
<polyline fill="none" stroke="black" points="144,-182.5 428,-182.5 "/>
<text text-anchor="start" x="152" y="-167.3" font-family="Times,serif" font-size="14.00">_layout</text>
<text text-anchor="start" x="152" y="-152.3" font-family="Times,serif" font-size="14.00">query_params</text>
</g>
<!-- Api::V1::SessionsController -->
<g id="node11" class="node"><title>Api::V1::SessionsController</title>
<path fill="none" stroke="black" d="M12,-540.5C12,-540.5 158,-540.5 158,-540.5 164,-540.5 170,-546.5 170,-552.5 170,-552.5 170,-636.5 170,-636.5 170,-642.5 164,-648.5 158,-648.5 158,-648.5 12,-648.5 12,-648.5 6,-648.5 0,-642.5 0,-636.5 0,-636.5 0,-552.5 0,-552.5 0,-546.5 6,-540.5 12,-540.5"/>
<text text-anchor="middle" x="85" y="-633.3" font-family="Times,serif" font-size="14.00">Api::V1::SessionsController</text>
<polyline fill="none" stroke="black" points="0,-625.5 170,-625.5 "/>
<text text-anchor="start" x="8" y="-610.3" font-family="Times,serif" font-size="14.00">create</text>
<polyline fill="none" stroke="black" points="0,-602.5 170,-602.5 "/>
<polyline fill="none" stroke="black" points="0,-578.5 170,-578.5 "/>
<text text-anchor="start" x="8" y="-563.3" font-family="Times,serif" font-size="14.00">_layout</text>
<text text-anchor="start" x="8" y="-548.3" font-family="Times,serif" font-size="14.00">invalid_login_attempt</text>
</g>
<!-- Api::V1::GroupsController -->
<g id="node12" class="node"><title>Api::V1::GroupsController</title>
<path fill="none" stroke="black" d="M12,-0.5C12,-0.5 152,-0.5 152,-0.5 158,-0.5 164,-6.5 164,-12.5 164,-12.5 164,-96.5 164,-96.5 164,-102.5 158,-108.5 152,-108.5 152,-108.5 12,-108.5 12,-108.5 6,-108.5 0,-102.5 0,-96.5 0,-96.5 0,-12.5 0,-12.5 0,-6.5 6,-0.5 12,-0.5"/>
<text text-anchor="middle" x="82" y="-93.3" font-family="Times,serif" font-size="14.00">Api::V1::GroupsController</text>
<polyline fill="none" stroke="black" points="0,-85.5 164,-85.5 "/>
<text text-anchor="start" x="8" y="-70.3" font-family="Times,serif" font-size="14.00">index</text>
<polyline fill="none" stroke="black" points="0,-62.5 164,-62.5 "/>
<polyline fill="none" stroke="black" points="0,-38.5 164,-38.5 "/>
<text text-anchor="start" x="8" y="-23.3" font-family="Times,serif" font-size="14.00">_layout</text>
<text text-anchor="start" x="8" y="-8.3" font-family="Times,serif" font-size="14.00">query_params</text>
</g>
<!-- Api::V1::LessonsController -->
<g id="node13" class="node"><title>Api::V1::LessonsController</title>
<path fill="none" stroke="black" d="M12,-396.5C12,-396.5 155,-396.5 155,-396.5 161,-396.5 167,-402.5 167,-408.5 167,-408.5 167,-492.5 167,-492.5 167,-498.5 161,-504.5 155,-504.5 155,-504.5 12,-504.5 12,-504.5 6,-504.5 0,-498.5 0,-492.5 0,-492.5 0,-408.5 0,-408.5 0,-402.5 6,-396.5 12,-396.5"/>
<text text-anchor="middle" x="83.5" y="-489.3" font-family="Times,serif" font-size="14.00">Api::V1::LessonsController</text>
<polyline fill="none" stroke="black" points="0,-481.5 167,-481.5 "/>
<text text-anchor="start" x="8" y="-466.3" font-family="Times,serif" font-size="14.00">index</text>
<polyline fill="none" stroke="black" points="0,-458.5 167,-458.5 "/>
<polyline fill="none" stroke="black" points="0,-434.5 167,-434.5 "/>
<text text-anchor="start" x="8" y="-419.3" font-family="Times,serif" font-size="14.00">_layout</text>
<text text-anchor="start" x="8" y="-404.3" font-family="Times,serif" font-size="14.00">query_params</text>
</g>
<!-- Api::V1::ConversationsController -->
<g id="node14" class="node"><title>Api::V1::ConversationsController</title>
<path fill="none" stroke="black" d="M210,-486.5C210,-486.5 387,-486.5 387,-486.5 393,-486.5 399,-492.5 399,-498.5 399,-498.5 399,-627.5 399,-627.5 399,-633.5 393,-639.5 387,-639.5 387,-639.5 210,-639.5 210,-639.5 204,-639.5 198,-633.5 198,-627.5 198,-627.5 198,-498.5 198,-498.5 198,-492.5 204,-486.5 210,-486.5"/>
<text text-anchor="middle" x="298.5" y="-624.3" font-family="Times,serif" font-size="14.00">Api::V1::ConversationsController</text>
<polyline fill="none" stroke="black" points="198,-616.5 399,-616.5 "/>
<text text-anchor="start" x="206" y="-601.3" font-family="Times,serif" font-size="14.00">create</text>
<text text-anchor="start" x="206" y="-586.3" font-family="Times,serif" font-size="14.00">index</text>
<text text-anchor="start" x="206" y="-571.3" font-family="Times,serif" font-size="14.00">update</text>
<polyline fill="none" stroke="black" points="198,-563.5 399,-563.5 "/>
<polyline fill="none" stroke="black" points="198,-539.5 399,-539.5 "/>
<text text-anchor="start" x="206" y="-524.3" font-family="Times,serif" font-size="14.00">_layout</text>
<text text-anchor="start" x="206" y="-509.3" font-family="Times,serif" font-size="14.00">conversation_params</text>
<text text-anchor="start" x="206" y="-494.3" font-family="Times,serif" font-size="14.00">create_params</text>
</g>
<!-- HomeController -->
<g id="node15" class="node"><title>HomeController</title>
<path fill="none" stroke="black" d="M210,-18.5C210,-18.5 292,-18.5 292,-18.5 298,-18.5 304,-24.5 304,-30.5 304,-30.5 304,-99.5 304,-99.5 304,-105.5 298,-111.5 292,-111.5 292,-111.5 210,-111.5 210,-111.5 204,-111.5 198,-105.5 198,-99.5 198,-99.5 198,-30.5 198,-30.5 198,-24.5 204,-18.5 210,-18.5"/>
<text text-anchor="middle" x="251" y="-96.3" font-family="Times,serif" font-size="14.00">HomeController</text>
<polyline fill="none" stroke="black" points="198,-88.5 304,-88.5 "/>
<text text-anchor="start" x="206" y="-73.3" font-family="Times,serif" font-size="14.00">index</text>
<polyline fill="none" stroke="black" points="198,-65.5 304,-65.5 "/>
<polyline fill="none" stroke="black" points="198,-41.5 304,-41.5 "/>
<text text-anchor="start" x="206" y="-26.3" font-family="Times,serif" font-size="14.00">_layout</text>
</g>
</g>
</svg>
