<?xml version="1.0" encoding="UTF-8" standalone="no"?>
<!DOCTYPE svg PUBLIC "-//W3C//DTD SVG 1.1//EN"
 "http://www.w3.org/Graphics/SVG/1.1/DTD/svg11.dtd">
<!-- Generated by graphviz version 2.36.0 (20140111.2315)
 -->
<!-- Title: models_diagram Pages: 1 -->
<svg width="2582pt" height="790pt"
 viewBox="0.00 0.00 2582.00 790.00" xmlns="http://www.w3.org/2000/svg" xmlns:xlink="http://www.w3.org/1999/xlink">
<g id="graph0" class="graph" transform="scale(1 1) rotate(0) translate(4 786)">
<title>models_diagram</title>
<polygon fill="none" stroke="none" points="-4,4 -4,-786 2578,-786 2578,4 -4,4"/>
<!-- _diagram_info -->
<g id="node1" class="node"><title>_diagram_info</title>
<text text-anchor="start" x="254" y="-670.6" font-family="Times,serif" font-size="13.00">Models diagram</text>
<text text-anchor="start" x="254" y="-656.6" font-family="Times,serif" font-size="13.00">Date: Oct 26 2016 &#45; 14:30</text>
<text text-anchor="start" x="254" y="-642.6" font-family="Times,serif" font-size="13.00">Migration version: 20160913101216</text>
<text text-anchor="start" x="254" y="-628.6" font-family="Times,serif" font-size="13.00">Generated by RailRoady 1.5.2</text>
<text text-anchor="start" x="254" y="-614.6" font-family="Times,serif" font-size="13.00">http://railroady.prestonlee.com</text>
</g>
<!-- TeacherLesson -->
<g id="node2" class="node"><title>TeacherLesson</title>
<path fill="none" stroke="black" d="M985,-1C985,-1 1205,-1 1205,-1 1211,-1 1217,-7 1217,-13 1217,-13 1217,-95 1217,-95 1217,-101 1211,-107 1205,-107 1205,-107 985,-107 985,-107 979,-107 973,-101 973,-95 973,-95 973,-13 973,-13 973,-7 979,-1 985,-1"/>
<text text-anchor="middle" x="1095" y="-91.8" font-family="Times,serif" font-size="14.00">TeacherLesson</text>
<polyline fill="none" stroke="black" points="973,-84 1217,-84 "/>
<text text-anchor="start" x="981" y="-68.8" font-family="Times,serif" font-size="14.00">id :integer</text>
<text text-anchor="start" x="981" y="-53.8" font-family="Times,serif" font-size="14.00">teacher_id :integer</text>
<text text-anchor="start" x="981" y="-38.8" font-family="Times,serif" font-size="14.00">lesson_id :integer</text>
<text text-anchor="start" x="981" y="-23.8" font-family="Times,serif" font-size="14.00">created_at :timestamp without time zone</text>
<text text-anchor="start" x="981" y="-8.8" font-family="Times,serif" font-size="14.00">updated_at :timestamp without time zone</text>
</g>
<!-- User -->
<g id="node3" class="node"><title>User</title>
<path fill="none" stroke="black" d="M490.5,-510.5C490.5,-510.5 779.5,-510.5 779.5,-510.5 785.5,-510.5 791.5,-516.5 791.5,-522.5 791.5,-522.5 791.5,-769.5 791.5,-769.5 791.5,-775.5 785.5,-781.5 779.5,-781.5 779.5,-781.5 490.5,-781.5 490.5,-781.5 484.5,-781.5 478.5,-775.5 478.5,-769.5 478.5,-769.5 478.5,-522.5 478.5,-522.5 478.5,-516.5 484.5,-510.5 490.5,-510.5"/>
<text text-anchor="middle" x="635" y="-766.3" font-family="Times,serif" font-size="14.00">User</text>
<polyline fill="none" stroke="black" points="478.5,-758.5 791.5,-758.5 "/>
<text text-anchor="start" x="486.5" y="-743.3" font-family="Times,serif" font-size="14.00">id :integer</text>
<text text-anchor="start" x="486.5" y="-728.3" font-family="Times,serif" font-size="14.00">email :character varying</text>
<text text-anchor="start" x="486.5" y="-713.3" font-family="Times,serif" font-size="14.00">encrypted_password :character varying</text>
<text text-anchor="start" x="486.5" y="-698.3" font-family="Times,serif" font-size="14.00">reset_password_token :character varying</text>
<text text-anchor="start" x="486.5" y="-683.3" font-family="Times,serif" font-size="14.00">reset_password_sent_at :timestamp without time zone</text>
<text text-anchor="start" x="486.5" y="-668.3" font-family="Times,serif" font-size="14.00">remember_created_at :timestamp without time zone</text>
<text text-anchor="start" x="486.5" y="-653.3" font-family="Times,serif" font-size="14.00">sign_in_count :integer</text>
<text text-anchor="start" x="486.5" y="-638.3" font-family="Times,serif" font-size="14.00">current_sign_in_at :timestamp without time zone</text>
<text text-anchor="start" x="486.5" y="-623.3" font-family="Times,serif" font-size="14.00">last_sign_in_at :timestamp without time zone</text>
<text text-anchor="start" x="486.5" y="-608.3" font-family="Times,serif" font-size="14.00">current_sign_in_ip :inet</text>
<text text-anchor="start" x="486.5" y="-593.3" font-family="Times,serif" font-size="14.00">last_sign_in_ip :inet</text>
<text text-anchor="start" x="486.5" y="-578.3" font-family="Times,serif" font-size="14.00">created_at :timestamp without time zone</text>
<text text-anchor="start" x="486.5" y="-563.3" font-family="Times,serif" font-size="14.00">updated_at :timestamp without time zone</text>
<text text-anchor="start" x="486.5" y="-548.3" font-family="Times,serif" font-size="14.00">first_name :character varying</text>
<text text-anchor="start" x="486.5" y="-533.3" font-family="Times,serif" font-size="14.00">last_name :character varying</text>
<text text-anchor="start" x="486.5" y="-518.3" font-family="Times,serif" font-size="14.00">account_type :character varying</text>
</g>
<!-- User&#45;&gt;TeacherLesson -->
<g id="edge3" class="edge"><title>User&#45;&gt;TeacherLesson</title>
<path fill="none" stroke="#386538" d="M799.568,-615.496C947.599,-584.551 1146.42,-530.34 1177,-458 1225.59,-343.067 1169.62,-197.242 1129.21,-116.267"/>
<ellipse fill="none" stroke="#386538" cx="795.589" cy="-616.322" rx="4.00001" ry="4.00001"/>
<polygon fill="#386538" stroke="#386538" points="1129.13,-116.119 1128.63,-105.165 1126.87,-111.659 1124.61,-107.199 1124.61,-107.199 1124.61,-107.199 1126.87,-111.659 1120.6,-109.234 1129.13,-116.119 1129.13,-116.119"/>
</g>
<!-- Group -->
<g id="node7" class="node"><title>Group</title>
<path fill="none" stroke="black" d="M181,-336.5C181,-336.5 401,-336.5 401,-336.5 407,-336.5 413,-342.5 413,-348.5 413,-348.5 413,-415.5 413,-415.5 413,-421.5 407,-427.5 401,-427.5 401,-427.5 181,-427.5 181,-427.5 175,-427.5 169,-421.5 169,-415.5 169,-415.5 169,-348.5 169,-348.5 169,-342.5 175,-336.5 181,-336.5"/>
<text text-anchor="middle" x="291" y="-412.3" font-family="Times,serif" font-size="14.00">Group</text>
<polyline fill="none" stroke="black" points="169,-404.5 413,-404.5 "/>
<text text-anchor="start" x="177" y="-389.3" font-family="Times,serif" font-size="14.00">id :integer</text>
<text text-anchor="start" x="177" y="-374.3" font-family="Times,serif" font-size="14.00">name :character varying</text>
<text text-anchor="start" x="177" y="-359.3" font-family="Times,serif" font-size="14.00">created_at :timestamp without time zone</text>
<text text-anchor="start" x="177" y="-344.3" font-family="Times,serif" font-size="14.00">updated_at :timestamp without time zone</text>
</g>
<!-- User&#45;&gt;Group -->
<g id="edge2" class="edge"><title>User&#45;&gt;Group</title>
<path fill="none" stroke="#38f93e" d="M468.969,-510.402C468.646,-510.267 468.323,-510.133 468,-510 431.65,-495.021 318.481,-521.059 292,-492 278.811,-477.528 276.12,-456.949 277.595,-437.564"/>
<polygon fill="#38f93e" stroke="#38f93e" points="469.152,-510.483 476.469,-518.65 473.723,-512.51 478.293,-514.537 478.293,-514.537 478.293,-514.537 473.723,-512.51 480.118,-510.423 469.152,-510.483 469.152,-510.483"/>
<polygon fill="#38f93e" stroke="#38f93e" points="277.601,-437.512 283.185,-428.075 278.157,-432.543 278.713,-427.574 278.713,-427.574 278.713,-427.574 278.157,-432.543 274.241,-427.074 277.601,-437.512 277.601,-437.512"/>
<text text-anchor="middle" x="333.5" y="-480.3" font-family="Times,serif" font-size="14.00">groups_teacher</text>
</g>
<!-- User&#45;&gt;Group -->
<g id="edge6" class="edge"><title>User&#45;&gt;Group</title>
<path fill="none" stroke="#8be92a" d="M469.311,-510.663C468.874,-510.441 468.437,-510.22 468,-510 439.299,-495.573 425.826,-508.05 398,-492 384.053,-483.955 359.26,-459.015 337.05,-435.02"/>
<polygon fill="#8be92a" stroke="#8be92a" points="469.632,-510.833 476.363,-519.49 474.051,-513.173 478.469,-515.513 478.469,-515.513 478.469,-515.513 474.051,-513.173 480.575,-511.536 469.632,-510.833 469.632,-510.833"/>
<polygon fill="#8be92a" stroke="#8be92a" points="337.02,-434.987 333.569,-424.578 333.638,-431.305 330.255,-427.623 330.255,-427.623 330.255,-427.623 333.638,-431.305 326.941,-430.667 337.02,-434.987 337.02,-434.987"/>
<text text-anchor="middle" x="439.5" y="-480.3" font-family="Times,serif" font-size="14.00">student_groups</text>
</g>
<!-- Event -->
<g id="node11" class="node"><title>Event</title>
<path fill="none" stroke="black" d="M12,-146.5C12,-146.5 232,-146.5 232,-146.5 238,-146.5 244,-152.5 244,-158.5 244,-158.5 244,-255.5 244,-255.5 244,-261.5 238,-267.5 232,-267.5 232,-267.5 12,-267.5 12,-267.5 6,-267.5 0,-261.5 0,-255.5 0,-255.5 0,-158.5 0,-158.5 0,-152.5 6,-146.5 12,-146.5"/>
<text text-anchor="middle" x="122" y="-252.3" font-family="Times,serif" font-size="14.00">Event</text>
<polyline fill="none" stroke="black" points="0,-244.5 244,-244.5 "/>
<text text-anchor="start" x="8" y="-229.3" font-family="Times,serif" font-size="14.00">id :integer</text>
<text text-anchor="start" x="8" y="-214.3" font-family="Times,serif" font-size="14.00">name :character varying</text>
<text text-anchor="start" x="8" y="-199.3" font-family="Times,serif" font-size="14.00">date :timestamp without time zone</text>
<text text-anchor="start" x="8" y="-184.3" font-family="Times,serif" font-size="14.00">user_id :integer</text>
<text text-anchor="start" x="8" y="-169.3" font-family="Times,serif" font-size="14.00">created_at :timestamp without time zone</text>
<text text-anchor="start" x="8" y="-154.3" font-family="Times,serif" font-size="14.00">updated_at :timestamp without time zone</text>
</g>
<!-- User&#45;&gt;Event -->
<g id="edge10" class="edge"><title>User&#45;&gt;Event</title>
<path fill="none" stroke="#1c9f2e" d="M470.931,-511.154C469.956,-510.762 468.978,-510.377 468,-510 434.354,-497.04 169.772,-517.216 144,-492 88.3859,-437.586 92.821,-342.786 104.501,-277.793"/>
<ellipse fill="none" stroke="#1c9f2e" cx="474.7" cy="-512.752" rx="4.00002" ry="4.00002"/>
<polygon fill="#1c9f2e" stroke="#1c9f2e" points="104.565,-277.454 110.851,-268.468 105.498,-272.542 106.43,-267.629 106.43,-267.629 106.43,-267.629 105.498,-272.542 102.009,-266.79 104.565,-277.454 104.565,-277.454"/>
</g>
<!-- Lesson -->
<g id="node12" class="node"><title>Lesson</title>
<path fill="none" stroke="black" d="M612,-161.5C612,-161.5 832,-161.5 832,-161.5 838,-161.5 844,-167.5 844,-173.5 844,-173.5 844,-240.5 844,-240.5 844,-246.5 838,-252.5 832,-252.5 832,-252.5 612,-252.5 612,-252.5 606,-252.5 600,-246.5 600,-240.5 600,-240.5 600,-173.5 600,-173.5 600,-167.5 606,-161.5 612,-161.5"/>
<text text-anchor="middle" x="722" y="-237.3" font-family="Times,serif" font-size="14.00">Lesson</text>
<polyline fill="none" stroke="black" points="600,-229.5 844,-229.5 "/>
<text text-anchor="start" x="608" y="-214.3" font-family="Times,serif" font-size="14.00">id :integer</text>
<text text-anchor="start" x="608" y="-199.3" font-family="Times,serif" font-size="14.00">name :character varying</text>
<text text-anchor="start" x="608" y="-184.3" font-family="Times,serif" font-size="14.00">created_at :timestamp without time zone</text>
<text text-anchor="start" x="608" y="-169.3" font-family="Times,serif" font-size="14.00">updated_at :timestamp without time zone</text>
</g>
<!-- User&#45;&gt;Lesson -->
<g id="edge1" class="edge"><title>User&#45;&gt;Lesson</title>
<path fill="none" stroke="#cc7a59" d="M801.352,-610.851C885.543,-584.246 980.402,-537.849 1031,-458 1067.16,-400.936 1070.9,-360.513 1031,-306 1009.09,-276.065 927.802,-250.973 854.102,-233.673"/>
<polygon fill="#cc7a59" stroke="#cc7a59" points="801.224,-610.89 790.341,-609.539 796.446,-612.364 791.669,-613.839 791.669,-613.839 791.669,-613.839 796.446,-612.364 792.996,-618.139 801.224,-610.89 801.224,-610.89"/>
<polygon fill="#cc7a59" stroke="#cc7a59" points="853.97,-233.643 845.24,-227.006 849.098,-232.517 844.227,-231.391 844.227,-231.391 844.227,-231.391 849.098,-232.517 843.213,-235.775 853.97,-233.643 853.97,-233.643"/>
<text text-anchor="middle" x="1101.5" y="-378.3" font-family="Times,serif" font-size="14.00">teacher_groups</text>
</g>
<!-- User&#45;&gt;Lesson -->
<g id="edge4" class="edge"><title>User&#45;&gt;Lesson</title>
<path fill="none" stroke="#d1a250" d="M801.878,-632.522C919.629,-613.99 1069.66,-568.579 1147,-458 1185.72,-402.64 1189.06,-358.864 1147,-306 1110.79,-260.489 965.008,-234.31 854.191,-220.649"/>
<polygon fill="#d1a250" stroke="#d1a250" points="801.553,-632.572 790.99,-629.626 796.61,-633.323 791.667,-634.075 791.667,-634.075 791.667,-634.075 796.61,-633.323 792.343,-638.524 801.553,-632.572 801.553,-632.572"/>
<polygon fill="#d1a250" stroke="#d1a250" points="854.184,-220.648 844.797,-214.979 849.22,-220.047 844.256,-219.446 844.256,-219.446 844.256,-219.446 849.22,-220.047 843.715,-223.914 854.184,-220.648 854.184,-220.648"/>
</g>
<!-- User&#45;&gt;Lesson -->
<g id="edge7" class="edge"><title>User&#45;&gt;Lesson</title>
<path fill="none" stroke="#de1c54" d="M648.599,-500.339C656.18,-439.68 667.516,-368.793 684,-306 687.802,-291.516 693.072,-276.248 698.477,-262.186"/>
<polygon fill="#de1c54" stroke="#de1c54" points="648.586,-500.446 642.901,-509.824 647.977,-505.409 647.367,-510.372 647.367,-510.372 647.367,-510.372 647.977,-505.409 651.834,-510.92 648.586,-500.446 648.586,-500.446"/>
<polygon fill="#de1c54" stroke="#de1c54" points="698.561,-261.973 706.411,-254.317 700.392,-257.321 702.224,-252.669 702.224,-252.669 702.224,-252.669 700.392,-257.321 698.037,-251.02 698.561,-261.973 698.561,-261.973"/>
<text text-anchor="middle" x="726.5" y="-378.3" font-family="Times,serif" font-size="14.00">student_lessons</text>
</g>
<!-- Grade -->
<g id="node13" class="node"><title>Grade</title>
<path fill="none" stroke="black" d="M790,-306.5C790,-306.5 1010,-306.5 1010,-306.5 1016,-306.5 1022,-312.5 1022,-318.5 1022,-318.5 1022,-445.5 1022,-445.5 1022,-451.5 1016,-457.5 1010,-457.5 1010,-457.5 790,-457.5 790,-457.5 784,-457.5 778,-451.5 778,-445.5 778,-445.5 778,-318.5 778,-318.5 778,-312.5 784,-306.5 790,-306.5"/>
<text text-anchor="middle" x="900" y="-442.3" font-family="Times,serif" font-size="14.00">Grade</text>
<polyline fill="none" stroke="black" points="778,-434.5 1022,-434.5 "/>
<text text-anchor="start" x="786" y="-419.3" font-family="Times,serif" font-size="14.00">id :integer</text>
<text text-anchor="start" x="786" y="-404.3" font-family="Times,serif" font-size="14.00">student_id :integer</text>
<text text-anchor="start" x="786" y="-389.3" font-family="Times,serif" font-size="14.00">teacher_id :integer</text>
<text text-anchor="start" x="786" y="-374.3" font-family="Times,serif" font-size="14.00">lesson_id :integer</text>
<text text-anchor="start" x="786" y="-359.3" font-family="Times,serif" font-size="14.00">grade :character varying</text>
<text text-anchor="start" x="786" y="-344.3" font-family="Times,serif" font-size="14.00">created_at :timestamp without time zone</text>
<text text-anchor="start" x="786" y="-329.3" font-family="Times,serif" font-size="14.00">updated_at :timestamp without time zone</text>
<text text-anchor="start" x="786" y="-314.3" font-family="Times,serif" font-size="14.00">description :character varying</text>
</g>
<!-- User&#45;&gt;Grade -->
<g id="edge8" class="edge"><title>User&#45;&gt;Grade</title>
<path fill="none" stroke="#3771e3" d="M797.751,-510.419C804.015,-504.302 810.123,-498.149 816,-492 823.852,-483.785 831.686,-474.86 839.238,-465.772"/>
<ellipse fill="none" stroke="#3771e3" cx="794.832" cy="-513.244" rx="4.00002" ry="4.00002"/>
<polygon fill="#3771e3" stroke="#3771e3" points="839.463,-465.497 849.278,-460.606 842.629,-461.627 845.795,-457.757 845.795,-457.757 845.795,-457.757 842.629,-461.627 842.312,-454.907 839.463,-465.497 839.463,-465.497"/>
<text text-anchor="middle" x="870" y="-480.3" font-family="Times,serif" font-size="14.00">student_grades</text>
</g>
<!-- User&#45;&gt;Grade -->
<g id="edge9" class="edge"><title>User&#45;&gt;Grade</title>
<path fill="none" stroke="#10472c" d="M705.871,-503.566C713.353,-493.716 721.401,-484.385 730,-476 742.242,-464.063 748.958,-466.129 764,-458 765.549,-457.163 767.108,-456.319 768.675,-455.471"/>
<ellipse fill="none" stroke="#10472c" cx="703.412" cy="-506.893" rx="4.00002" ry="4.00002"/>
<polygon fill="#10472c" stroke="#10472c" points="768.936,-455.329 779.871,-454.515 773.33,-452.944 777.725,-450.56 777.725,-450.56 777.725,-450.56 773.33,-452.944 775.578,-446.604 768.936,-455.329 768.936,-455.329"/>
<text text-anchor="middle" x="771" y="-480.3" font-family="Times,serif" font-size="14.00">teacher_grades</text>
</g>
<!-- GroupStudent -->
<g id="node18" class="node"><title>GroupStudent</title>
<path fill="none" stroke="black" d="M350,-154C350,-154 570,-154 570,-154 576,-154 582,-160 582,-166 582,-166 582,-248 582,-248 582,-254 576,-260 570,-260 570,-260 350,-260 350,-260 344,-260 338,-254 338,-248 338,-248 338,-166 338,-166 338,-160 344,-154 350,-154"/>
<text text-anchor="middle" x="460" y="-244.8" font-family="Times,serif" font-size="14.00">GroupStudent</text>
<polyline fill="none" stroke="black" points="338,-237 582,-237 "/>
<text text-anchor="start" x="346" y="-221.8" font-family="Times,serif" font-size="14.00">id :integer</text>
<text text-anchor="start" x="346" y="-206.8" font-family="Times,serif" font-size="14.00">student_id :integer</text>
<text text-anchor="start" x="346" y="-191.8" font-family="Times,serif" font-size="14.00">group_id :integer</text>
<text text-anchor="start" x="346" y="-176.8" font-family="Times,serif" font-size="14.00">created_at :timestamp without time zone</text>
<text text-anchor="start" x="346" y="-161.8" font-family="Times,serif" font-size="14.00">updated_at :timestamp without time zone</text>
</g>
<!-- User&#45;&gt;GroupStudent -->
<g id="edge5" class="edge"><title>User&#45;&gt;GroupStudent</title>
<path fill="none" stroke="#8881c7" d="M524.297,-503.135C516.085,-488.418 508.772,-473.251 503,-458 479.763,-396.603 469.008,-321.945 464.077,-270.285"/>
<ellipse fill="none" stroke="#8881c7" cx="526.416" cy="-506.848" rx="4.00002" ry="4.00002"/>
<polygon fill="#8881c7" stroke="#8881c7" points="464.072,-270.229 467.648,-259.863 463.619,-265.25 463.166,-260.27 463.166,-260.27 463.166,-260.27 463.619,-265.25 458.685,-260.678 464.072,-270.229 464.072,-270.229"/>
</g>
<!-- Mailboxer::Message -->
<g id="node19" class="node"><title>Mailboxer::Message</title>
<ellipse fill="none" stroke="black" cx="1319" cy="-382" rx="83.2649" ry="18"/>
<text text-anchor="middle" x="1319" y="-378.3" font-family="Times,serif" font-size="14.00">Mailboxer::Message</text>
</g>
<!-- User&#45;&gt;Mailboxer::Message -->
<g id="edge11" class="edge"><title>User&#45;&gt;Mailboxer::Message</title>
<path fill="none" stroke="#364bce" d="M799.81,-627.877C923.087,-609.162 1091.93,-570.592 1221,-492 1255.65,-470.901 1285.15,-433.81 1302.48,-408.826"/>
<ellipse fill="none" stroke="#364bce" cx="795.713" cy="-628.489" rx="4.00001" ry="4.00001"/>
<polygon fill="#364bce" stroke="#364bce" points="1302.69,-408.505 1312.02,-402.743 1305.49,-404.363 1308.29,-400.222 1308.29,-400.222 1308.29,-400.222 1305.49,-404.363 1304.57,-397.701 1302.69,-408.505 1302.69,-408.505"/>
<text text-anchor="middle" x="1266" y="-480.3" font-family="Times,serif" font-size="14.00">messages</text>
</g>
<!-- Mailboxer::Receipt -->
<g id="node20" class="node"><title>Mailboxer::Receipt</title>
<ellipse fill="none" stroke="black" cx="1500" cy="-382" rx="78.9404" ry="18"/>
<text text-anchor="middle" x="1500" y="-378.3" font-family="Times,serif" font-size="14.00">Mailboxer::Receipt</text>
</g>
<!-- User&#45;&gt;Mailboxer::Receipt -->
<g id="edge12" class="edge"><title>User&#45;&gt;Mailboxer::Receipt</title>
<path fill="none" stroke="#822111" d="M799.621,-612.692C934.235,-584.89 1128.94,-541.511 1296,-492 1315.95,-486.087 1320.11,-482.12 1340,-476 1371.11,-466.425 1382.04,-472.867 1411,-458 1436.25,-445.036 1460.59,-423.715 1477.42,-407.112"/>
<ellipse fill="none" stroke="#822111" cx="795.566" cy="-613.528" rx="4.00001" ry="4.00001"/>
<polygon fill="#822111" stroke="#822111" points="1477.56,-406.97 1487.79,-403.029 1481.07,-403.417 1484.59,-399.863 1484.59,-399.863 1484.59,-399.863 1481.07,-403.417 1481.39,-396.697 1477.56,-406.97 1477.56,-406.97"/>
<text text-anchor="middle" x="1361.5" y="-480.3" font-family="Times,serif" font-size="14.00">receipts</text>
</g>
<!-- Conversation::ConversationCreation -->
<g id="node4" class="node"><title>Conversation::ConversationCreation</title>
<polygon fill="none" stroke="black" points="1640.5,-623 1640.5,-669 1855.5,-669 1855.5,-623 1640.5,-623"/>
<text text-anchor="middle" x="1748" y="-653.8" font-family="Times,serif" font-size="14.00">Conversation::ConversationCreation</text>
<polyline fill="none" stroke="black" points="1640.5,-646 1855.5,-646 "/>
<text text-anchor="middle" x="1748" y="-630.8" font-family="Times,serif" font-size="14.00"> </text>
</g>
<!-- LessonDate -->
<g id="node5" class="node"><title>LessonDate</title>
<path fill="none" stroke="black" d="M612,-1C612,-1 832,-1 832,-1 838,-1 844,-7 844,-13 844,-13 844,-95 844,-95 844,-101 838,-107 832,-107 832,-107 612,-107 612,-107 606,-107 600,-101 600,-95 600,-95 600,-13 600,-13 600,-7 606,-1 612,-1"/>
<text text-anchor="middle" x="722" y="-91.8" font-family="Times,serif" font-size="14.00">LessonDate</text>
<polyline fill="none" stroke="black" points="600,-84 844,-84 "/>
<text text-anchor="start" x="608" y="-68.8" font-family="Times,serif" font-size="14.00">id :integer</text>
<text text-anchor="start" x="608" y="-53.8" font-family="Times,serif" font-size="14.00">date :timestamp without time zone</text>
<text text-anchor="start" x="608" y="-38.8" font-family="Times,serif" font-size="14.00">lesson_id :integer</text>
<text text-anchor="start" x="608" y="-23.8" font-family="Times,serif" font-size="14.00">created_at :timestamp without time zone</text>
<text text-anchor="start" x="608" y="-8.8" font-family="Times,serif" font-size="14.00">updated_at :timestamp without time zone</text>
</g>
<!-- Conversation -->
<g id="node6" class="node"><title>Conversation</title>
<path fill="none" stroke="black" d="M1390,-600.5C1390,-600.5 1610,-600.5 1610,-600.5 1616,-600.5 1622,-606.5 1622,-612.5 1622,-612.5 1622,-679.5 1622,-679.5 1622,-685.5 1616,-691.5 1610,-691.5 1610,-691.5 1390,-691.5 1390,-691.5 1384,-691.5 1378,-685.5 1378,-679.5 1378,-679.5 1378,-612.5 1378,-612.5 1378,-606.5 1384,-600.5 1390,-600.5"/>
<text text-anchor="middle" x="1500" y="-676.3" font-family="Times,serif" font-size="14.00">Conversation</text>
<polyline fill="none" stroke="black" points="1378,-668.5 1622,-668.5 "/>
<text text-anchor="start" x="1386" y="-653.3" font-family="Times,serif" font-size="14.00">id :integer</text>
<text text-anchor="start" x="1386" y="-638.3" font-family="Times,serif" font-size="14.00">subject :character varying</text>
<text text-anchor="start" x="1386" y="-623.3" font-family="Times,serif" font-size="14.00">created_at :timestamp without time zone</text>
<text text-anchor="start" x="1386" y="-608.3" font-family="Times,serif" font-size="14.00">updated_at :timestamp without time zone</text>
</g>
<!-- Conversation&#45;&gt;Mailboxer::Message -->
<g id="edge14" class="edge"><title>Conversation&#45;&gt;Mailboxer::Message</title>
<path fill="none" stroke="#20a6da" d="M1464.43,-593.516C1425.91,-537.757 1366.03,-451.08 1336.58,-408.443"/>
<ellipse fill="none" stroke="#20a6da" cx="1466.82" cy="-596.967" rx="4.00002" ry="4.00002"/>
<polygon fill="#20a6da" stroke="#20a6da" points="1336.46,-408.268 1334.47,-397.483 1333.61,-404.154 1330.77,-400.041 1330.77,-400.041 1330.77,-400.041 1333.61,-404.154 1327.07,-402.598 1336.46,-408.268 1336.46,-408.268"/>
<text text-anchor="middle" x="1419" y="-480.3" font-family="Times,serif" font-size="14.00">messages</text>
</g>
<!-- Conversation&#45;&gt;Mailboxer::Receipt -->
<g id="edge15" class="edge"><title>Conversation&#45;&gt;Mailboxer::Receipt</title>
<path fill="none" stroke="#b44842" d="M1500,-590.21C1500,-535.129 1500,-452.486 1500,-410.139"/>
<polygon fill="#b44842" stroke="#b44842" points="1500,-590.258 1495.5,-600.258 1500,-595.258 1500,-600.258 1500,-600.258 1500,-600.258 1500,-595.258 1504.5,-600.258 1500,-590.258 1500,-590.258"/>
<polygon fill="#b44842" stroke="#b44842" points="1500,-410.041 1504.5,-400.041 1500,-405.041 1500,-400.041 1500,-400.041 1500,-400.041 1500,-405.041 1495.5,-400.041 1500,-410.041 1500,-410.041"/>
<text text-anchor="middle" x="1521.5" y="-480.3" font-family="Times,serif" font-size="14.00">receipts</text>
</g>
<!-- Mailboxer::Conversation::OptOut -->
<g id="node21" class="node"><title>Mailboxer::Conversation::OptOut</title>
<ellipse fill="none" stroke="black" cx="1728" cy="-382" rx="130.457" ry="18"/>
<text text-anchor="middle" x="1728" y="-378.3" font-family="Times,serif" font-size="14.00">Mailboxer::Conversation::OptOut</text>
</g>
<!-- Conversation&#45;&gt;Mailboxer::Conversation::OptOut -->
<g id="edge13" class="edge"><title>Conversation&#45;&gt;Mailboxer::Conversation::OptOut</title>
<path fill="none" stroke="#f04c37" d="M1544.49,-593.879C1593.3,-537.792 1669.6,-450.105 1706.54,-407.662"/>
<ellipse fill="none" stroke="#f04c37" cx="1541.56" cy="-597.241" rx="4.00002" ry="4.00002"/>
<polygon fill="#f04c37" stroke="#f04c37" points="1706.61,-407.584 1716.57,-402.995 1709.89,-403.812 1713.17,-400.041 1713.17,-400.041 1713.17,-400.041 1709.89,-403.812 1709.78,-397.087 1706.61,-407.584 1706.61,-407.584"/>
<text text-anchor="middle" x="1664.5" y="-480.3" font-family="Times,serif" font-size="14.00">opt_outs</text>
</g>
<!-- Group&#45;&gt;User -->
<g id="edge17" class="edge"><title>Group&#45;&gt;User</title>
<path fill="none" stroke="#d17bd3" d="M174.82,-433.308C149.939,-450.73 136.315,-471.147 156,-492 179.836,-517.251 435.61,-497.484 468,-510 468.326,-510.126 468.652,-510.253 468.978,-510.381"/>
<polygon fill="#d17bd3" stroke="#d17bd3" points="174.908,-433.251 185.737,-431.522 179.087,-430.506 183.266,-427.761 183.266,-427.761 183.266,-427.761 179.087,-430.506 180.796,-423.999 174.908,-433.251 174.908,-433.251"/>
<polygon fill="#d17bd3" stroke="#d17bd3" points="469.157,-510.456 476.637,-518.474 473.767,-512.39 478.378,-514.324 478.378,-514.324 478.378,-514.324 473.767,-512.39 480.119,-510.175 469.157,-510.456 469.157,-510.456"/>
<text text-anchor="middle" x="178.5" y="-480.3" font-family="Times,serif" font-size="14.00">students</text>
</g>
<!-- Group&#45;&gt;User -->
<g id="edge20" class="edge"><title>Group&#45;&gt;User</title>
<path fill="none" stroke="#ccdb47" d="M238.336,-435.831C225.394,-454.963 219.019,-475.822 234,-492 269.436,-530.266 419.534,-490.737 468,-510 468.325,-510.129 468.649,-510.259 468.974,-510.39"/>
<polygon fill="#ccdb47" stroke="#ccdb47" points="238.338,-435.828 247.874,-430.412 241.29,-431.792 244.241,-427.756 244.241,-427.756 244.241,-427.756 241.29,-431.792 240.609,-425.099 238.338,-435.828 238.338,-435.828"/>
<polygon fill="#ccdb47" stroke="#ccdb47" points="469.155,-510.467 476.565,-518.551 473.748,-512.442 478.342,-514.416 478.342,-514.416 478.342,-514.416 473.748,-512.442 480.119,-510.282 469.155,-510.467 469.155,-510.467"/>
<text text-anchor="middle" x="256.5" y="-480.3" font-family="Times,serif" font-size="14.00">teachers</text>
</g>
<!-- GroupLesson -->
<g id="node8" class="node"><title>GroupLesson</title>
<path fill="none" stroke="black" d="M341,-1C341,-1 561,-1 561,-1 567,-1 573,-7 573,-13 573,-13 573,-95 573,-95 573,-101 567,-107 561,-107 561,-107 341,-107 341,-107 335,-107 329,-101 329,-95 329,-95 329,-13 329,-13 329,-7 335,-1 341,-1"/>
<text text-anchor="middle" x="451" y="-91.8" font-family="Times,serif" font-size="14.00">GroupLesson</text>
<polyline fill="none" stroke="black" points="329,-84 573,-84 "/>
<text text-anchor="start" x="337" y="-68.8" font-family="Times,serif" font-size="14.00">id :integer</text>
<text text-anchor="start" x="337" y="-53.8" font-family="Times,serif" font-size="14.00">group_id :integer</text>
<text text-anchor="start" x="337" y="-38.8" font-family="Times,serif" font-size="14.00">lesson_id :integer</text>
<text text-anchor="start" x="337" y="-23.8" font-family="Times,serif" font-size="14.00">created_at :timestamp without time zone</text>
<text text-anchor="start" x="337" y="-8.8" font-family="Times,serif" font-size="14.00">updated_at :timestamp without time zone</text>
</g>
<!-- Group&#45;&gt;GroupLesson -->
<g id="edge18" class="edge"><title>Group&#45;&gt;GroupLesson</title>
<path fill="none" stroke="#4cf9b1" d="M294.927,-328.169C300.156,-268.502 310.912,-175.828 329,-146 336.111,-134.273 345.354,-123.561 355.571,-113.934"/>
<ellipse fill="none" stroke="#4cf9b1" cx="294.567" cy="-332.374" rx="4" ry="4"/>
<polygon fill="#4cf9b1" stroke="#4cf9b1" points="355.725,-113.796 366.172,-110.465 359.446,-110.456 363.167,-107.117 363.167,-107.117 363.167,-107.117 359.446,-110.456 360.161,-103.768 355.725,-113.796 355.725,-113.796"/>
</g>
<!-- Group&#45;&gt;Event -->
<g id="edge21" class="edge"><title>Group&#45;&gt;Event</title>
<path fill="none" stroke="#0e7cc2" d="M240.379,-329.181C223.846,-312.257 205.24,-293.21 187.76,-275.316"/>
<polygon fill="#0e7cc2" stroke="#0e7cc2" points="240.49,-329.295 244.259,-339.593 243.984,-332.872 247.478,-336.448 247.478,-336.448 247.478,-336.448 243.984,-332.872 250.697,-333.304 240.49,-329.295 240.49,-329.295"/>
<polygon fill="#0e7cc2" stroke="#0e7cc2" points="187.335,-274.881 183.566,-264.583 183.841,-271.305 180.347,-267.728 180.347,-267.728 180.347,-267.728 183.841,-271.305 177.128,-270.872 187.335,-274.881 187.335,-274.881"/>
</g>
<!-- Group&#45;&gt;Lesson -->
<g id="edge19" class="edge"><title>Group&#45;&gt;Lesson</title>
<path fill="none" stroke="#ca2429" d="M385.697,-332.056C420.599,-315.55 460.921,-298.232 499,-286 538.668,-273.257 551.339,-280.764 591,-268 601.301,-264.685 611.861,-260.777 622.298,-256.571"/>
<polygon fill="#ca2429" stroke="#ca2429" points="385.5,-332.15 374.537,-332.396 380.988,-334.304 376.476,-336.457 376.476,-336.457 376.476,-336.457 380.988,-334.304 378.414,-340.519 385.5,-332.15 385.5,-332.15"/>
<polygon fill="#ca2429" stroke="#ca2429" points="622.595,-256.449 633.555,-256.793 627.216,-254.541 631.838,-252.634 631.838,-252.634 631.838,-252.634 627.216,-254.541 630.121,-248.474 622.595,-256.449 622.595,-256.449"/>
</g>
<!-- GroupEvent -->
<g id="node17" class="node"><title>GroupEvent</title>
<path fill="none" stroke="black" d="M41,-1C41,-1 261,-1 261,-1 267,-1 273,-7 273,-13 273,-13 273,-95 273,-95 273,-101 267,-107 261,-107 261,-107 41,-107 41,-107 35,-107 29,-101 29,-95 29,-95 29,-13 29,-13 29,-7 35,-1 41,-1"/>
<text text-anchor="middle" x="151" y="-91.8" font-family="Times,serif" font-size="14.00">GroupEvent</text>
<polyline fill="none" stroke="black" points="29,-84 273,-84 "/>
<text text-anchor="start" x="37" y="-68.8" font-family="Times,serif" font-size="14.00">id :integer</text>
<text text-anchor="start" x="37" y="-53.8" font-family="Times,serif" font-size="14.00">event_id :integer</text>
<text text-anchor="start" x="37" y="-38.8" font-family="Times,serif" font-size="14.00">group_id :integer</text>
<text text-anchor="start" x="37" y="-23.8" font-family="Times,serif" font-size="14.00">created_at :timestamp without time zone</text>
<text text-anchor="start" x="37" y="-8.8" font-family="Times,serif" font-size="14.00">updated_at :timestamp without time zone</text>
</g>
<!-- Group&#45;&gt;GroupEvent -->
<g id="edge22" class="edge"><title>Group&#45;&gt;GroupEvent</title>
<path fill="none" stroke="#212c86" d="M292.333,-328.06C291.39,-278.178 284.138,-202.819 253,-146 246.82,-134.723 238.686,-124.143 229.702,-114.47"/>
<ellipse fill="none" stroke="#212c86" cx="292.384" cy="-332.147" rx="4" ry="4"/>
<polygon fill="#212c86" stroke="#212c86" points="229.657,-114.422 225.912,-104.116 226.171,-110.838 222.685,-107.253 222.685,-107.253 222.685,-107.253 226.171,-110.838 219.459,-110.39 229.657,-114.422 229.657,-114.422"/>
</g>
<!-- Group&#45;&gt;GroupStudent -->
<g id="edge16" class="edge"><title>Group&#45;&gt;GroupStudent</title>
<path fill="none" stroke="#d62bc8" d="M340.23,-330.605C359.596,-310.78 381.975,-287.872 402.109,-267.262"/>
<ellipse fill="none" stroke="#d62bc8" cx="337.317" cy="-333.587" rx="4.00002" ry="4.00002"/>
<polygon fill="#d62bc8" stroke="#d62bc8" points="402.14,-267.229 412.347,-263.221 405.634,-263.653 409.128,-260.076 409.128,-260.076 409.128,-260.076 405.634,-263.653 405.909,-256.932 402.14,-267.229 402.14,-267.229"/>
</g>
<!-- Event::EventQuery -->
<g id="node9" class="node"><title>Event::EventQuery</title>
<polygon fill="none" stroke="black" points="1873.5,-623 1873.5,-669 1994.5,-669 1994.5,-623 1873.5,-623"/>
<text text-anchor="middle" x="1934" y="-653.8" font-family="Times,serif" font-size="14.00">Event::EventQuery</text>
<polyline fill="none" stroke="black" points="1873.5,-646 1994.5,-646 "/>
<text text-anchor="middle" x="1934" y="-630.8" font-family="Times,serif" font-size="14.00"> </text>
</g>
<!-- User::UserQuery -->
<g id="node10" class="node"><title>User::UserQuery</title>
<polygon fill="none" stroke="black" points="2012.5,-623 2012.5,-669 2121.5,-669 2121.5,-623 2012.5,-623"/>
<text text-anchor="middle" x="2067" y="-653.8" font-family="Times,serif" font-size="14.00">User::UserQuery</text>
<polyline fill="none" stroke="black" points="2012.5,-646 2121.5,-646 "/>
<text text-anchor="middle" x="2067" y="-630.8" font-family="Times,serif" font-size="14.00"> </text>
</g>
<!-- Event&#45;&gt;GroupEvent -->
<g id="edge23" class="edge"><title>Event&#45;&gt;GroupEvent</title>
<path fill="none" stroke="#d21717" d="M134.979,-138.418C136.322,-131.428 137.682,-124.347 139.012,-117.418"/>
<ellipse fill="none" stroke="#d21717" cx="134.216" cy="-142.393" rx="4.00001" ry="4.00001"/>
<polygon fill="#d21717" stroke="#d21717" points="139.05,-117.222 145.355,-108.251 139.993,-112.312 140.936,-107.402 140.936,-107.402 140.936,-107.402 139.993,-112.312 136.517,-106.553 139.05,-117.222 139.05,-117.222"/>
</g>
<!-- Lesson&#45;&gt;TeacherLesson -->
<g id="edge25" class="edge"><title>Lesson&#45;&gt;TeacherLesson</title>
<path fill="none" stroke="#304704" d="M839.732,-158.339C879.12,-142.394 923.267,-124.522 963.629,-108.182"/>
<ellipse fill="none" stroke="#304704" cx="835.854" cy="-159.909" rx="4.00001" ry="4.00001"/>
<polygon fill="#304704" stroke="#304704" points="963.719,-108.146 974.676,-108.565 968.353,-106.27 972.988,-104.394 972.988,-104.394 972.988,-104.394 968.353,-106.27 971.299,-100.222 963.719,-108.146 963.719,-108.146"/>
</g>
<!-- Lesson&#45;&gt;User -->
<g id="edge26" class="edge"><title>Lesson&#45;&gt;User</title>
<path fill="none" stroke="#9ac1e0" d="M618.949,-256.98C573.691,-278.985 530.006,-301.125 527,-306 490.461,-365.258 507.029,-438.046 537.024,-500.965"/>
<polygon fill="#9ac1e0" stroke="#9ac1e0" points="619.012,-256.95 629.974,-256.635 623.511,-254.768 628.01,-252.586 628.01,-252.586 628.01,-252.586 623.511,-254.768 626.047,-248.537 619.012,-256.95 619.012,-256.95"/>
<polygon fill="#9ac1e0" stroke="#9ac1e0" points="537.138,-501.196 537.503,-512.156 539.34,-505.685 541.543,-510.174 541.543,-510.174 541.543,-510.174 539.34,-505.685 545.582,-508.192 537.138,-501.196 537.138,-501.196"/>
<text text-anchor="middle" x="549.5" y="-378.3" font-family="Times,serif" font-size="14.00">teachers</text>
</g>
<!-- Lesson&#45;&gt;User -->
<g id="edge27" class="edge"><title>Lesson&#45;&gt;User</title>
<path fill="none" stroke="#a4f86b" d="M641.982,-259.291C627.404,-272.615 614.225,-288.284 606,-306 578.198,-365.883 580.201,-438.097 591.283,-500.459"/>
<polygon fill="#a4f86b" stroke="#a4f86b" points="642.181,-259.117 652.674,-255.928 645.948,-255.828 649.714,-252.539 649.714,-252.539 649.714,-252.539 645.948,-255.828 646.754,-249.149 642.181,-259.117 642.181,-259.117"/>
<polygon fill="#a4f86b" stroke="#a4f86b" points="591.3,-500.55 588.713,-511.206 592.218,-505.465 593.136,-510.38 593.136,-510.38 593.136,-510.38 592.218,-505.465 597.56,-509.553 591.3,-500.55 591.3,-500.55"/>
<text text-anchor="middle" x="628.5" y="-378.3" font-family="Times,serif" font-size="14.00">students</text>
</g>
<!-- Lesson&#45;&gt;LessonDate -->
<g id="edge28" class="edge"><title>Lesson&#45;&gt;LessonDate</title>
<path fill="none" stroke="#33f875" d="M722,-152.993C722,-141.494 722,-129.229 722,-117.406"/>
<ellipse fill="none" stroke="#33f875" cx="722" cy="-157.104" rx="4" ry="4"/>
<polygon fill="#33f875" stroke="#33f875" points="722,-117.16 726.5,-107.16 722,-112.16 722,-107.16 722,-107.16 722,-107.16 722,-112.16 717.5,-107.16 722,-117.16 722,-117.16"/>
</g>
<!-- Lesson&#45;&gt;GroupLesson -->
<g id="edge24" class="edge"><title>Lesson&#45;&gt;GroupLesson</title>
<path fill="none" stroke="#08c40d" d="M634.542,-157.269C608.658,-142.846 580.087,-126.927 553.351,-112.029"/>
<ellipse fill="none" stroke="#08c40d" cx="638.297" cy="-159.361" rx="4.00002" ry="4.00002"/>
<polygon fill="#08c40d" stroke="#08c40d" points="553.096,-111.888 546.551,-103.089 548.728,-109.454 544.361,-107.02 544.361,-107.02 544.361,-107.02 548.728,-109.454 542.17,-110.951 553.096,-111.888 553.096,-111.888"/>
</g>
<!-- Group::GroupQuery -->
<g id="node14" class="node"><title>Group::GroupQuery</title>
<polygon fill="none" stroke="black" points="2139.5,-623 2139.5,-669 2266.5,-669 2266.5,-623 2139.5,-623"/>
<text text-anchor="middle" x="2203" y="-653.8" font-family="Times,serif" font-size="14.00">Group::GroupQuery</text>
<polyline fill="none" stroke="black" points="2139.5,-646 2266.5,-646 "/>
<text text-anchor="middle" x="2203" y="-630.8" font-family="Times,serif" font-size="14.00"> </text>
</g>
<!-- Lesson::LessonQuery -->
<g id="node15" class="node"><title>Lesson::LessonQuery</title>
<polygon fill="none" stroke="black" points="2285,-623 2285,-669 2419,-669 2419,-623 2285,-623"/>
<text text-anchor="middle" x="2352" y="-653.8" font-family="Times,serif" font-size="14.00">Lesson::LessonQuery</text>
<polyline fill="none" stroke="black" points="2285,-646 2419,-646 "/>
<text text-anchor="middle" x="2352" y="-630.8" font-family="Times,serif" font-size="14.00"> </text>
</g>
<!-- Grade::GradeCreation -->
<g id="node16" class="node"><title>Grade::GradeCreation</title>
<polygon fill="none" stroke="black" points="2437.5,-623 2437.5,-669 2574.5,-669 2574.5,-623 2437.5,-623"/>
<text text-anchor="middle" x="2506" y="-653.8" font-family="Times,serif" font-size="14.00">Grade::GradeCreation</text>
<polyline fill="none" stroke="black" points="2437.5,-646 2574.5,-646 "/>
<text text-anchor="middle" x="2506" y="-630.8" font-family="Times,serif" font-size="14.00"> </text>
</g>
</g>
</svg>
