<?xml version="1.0" encoding="UTF-8" standalone="no"?>
<!DOCTYPE svg PUBLIC "-//W3C//DTD SVG 1.1//EN"
 "http://www.w3.org/Graphics/SVG/1.1/DTD/svg11.dtd">
<!-- Generated by graphviz version 2.36.0 (20140111.2315)
 -->
<!-- Title: models_diagram Pages: 1 -->
<svg width="2153pt" height="322pt"
 viewBox="0.00 0.00 2153.23 322.00" xmlns="http://www.w3.org/2000/svg" xmlns:xlink="http://www.w3.org/1999/xlink">
<g id="graph0" class="graph" transform="scale(1 1) rotate(0) translate(4 318)">
<title>models_diagram</title>
<polygon fill="none" stroke="none" points="-4,4 -4,-318 2149.23,-318 2149.23,4 -4,4"/>
<!-- _diagram_info -->
<g id="node1" class="node"><title>_diagram_info</title>
<text text-anchor="start" x="184.23" y="-299.6" font-family="Times,serif" font-size="13.00">Models diagram</text>
<text text-anchor="start" x="184.23" y="-285.6" font-family="Times,serif" font-size="13.00">Date: Oct 26 2016 &#45; 14:30</text>
<text text-anchor="start" x="184.23" y="-271.6" font-family="Times,serif" font-size="13.00">Migration version: 20160913101216</text>
<text text-anchor="start" x="184.23" y="-257.6" font-family="Times,serif" font-size="13.00">Generated by RailRoady 1.5.2</text>
<text text-anchor="start" x="184.23" y="-243.6" font-family="Times,serif" font-size="13.00">http://railroady.prestonlee.com</text>
</g>
<!-- TeacherLesson -->
<g id="node2" class="node"><title>TeacherLesson</title>
<ellipse fill="none" stroke="black" cx="694.23" cy="-18" rx="63.5411" ry="18"/>
<text text-anchor="middle" x="694.23" y="-14.3" font-family="Times,serif" font-size="14.00">TeacherLesson</text>
</g>
<!-- User -->
<g id="node3" class="node"><title>User</title>
<ellipse fill="none" stroke="black" cx="435.23" cy="-275" rx="26.949" ry="18"/>
<text text-anchor="middle" x="435.23" y="-271.3" font-family="Times,serif" font-size="14.00">User</text>
</g>
<!-- User&#45;&gt;TeacherLesson -->
<g id="edge3" class="edge"><title>User&#45;&gt;TeacherLesson</title>
<path fill="none" stroke="#dde91f" d="M470.451,-273.116C549.289,-270.402 736.557,-259.625 781.23,-218 833.431,-169.362 760.931,-83.9031 719.557,-42.6289"/>
<ellipse fill="none" stroke="#dde91f" cx="466.275" cy="-273.252" rx="4" ry="4"/>
<polygon fill="#dde91f" stroke="#dde91f" points="719.375,-42.4514 715.379,-32.2398 715.803,-38.9533 712.23,-35.4551 712.23,-35.4551 712.23,-35.4551 715.803,-38.9533 709.082,-38.6704 719.375,-42.4514 719.375,-42.4514"/>
</g>
<!-- Group -->
<g id="node7" class="node"><title>Group</title>
<ellipse fill="none" stroke="black" cx="157.23" cy="-166" rx="33.2209" ry="18"/>
<text text-anchor="middle" x="157.23" y="-162.3" font-family="Times,serif" font-size="14.00">Group</text>
</g>
<!-- User&#45;&gt;Group -->
<g id="edge2" class="edge"><title>User&#45;&gt;Group</title>
<path fill="none" stroke="#a0a5f6" d="M417.565,-250.538C412.031,-244.815 405.458,-239.373 398.23,-236 349.564,-213.288 193.764,-257.364 157.23,-218 151.256,-211.563 149.911,-202.458 150.505,-193.719"/>
<polygon fill="#a0a5f6" stroke="#a0a5f6" points="417.829,-250.839 421.05,-261.321 421.129,-254.595 424.43,-258.35 424.43,-258.35 424.43,-258.35 421.129,-254.595 427.81,-255.38 417.829,-250.839 417.829,-250.839"/>
<polygon fill="#a0a5f6" stroke="#a0a5f6" points="150.507,-193.707 156.386,-184.451 151.22,-188.758 151.932,-183.809 151.932,-183.809 151.932,-183.809 151.22,-188.758 147.478,-183.168 150.507,-193.707 150.507,-193.707"/>
<text text-anchor="middle" x="198.73" y="-206.3" font-family="Times,serif" font-size="14.00">groups_teacher</text>
</g>
<!-- User&#45;&gt;Group -->
<g id="edge6" class="edge"><title>User&#45;&gt;Group</title>
<path fill="none" stroke="#b4951a" d="M417.168,-250.539C411.69,-244.916 405.244,-239.525 398.23,-236 344.144,-208.822 319.661,-239.899 263.23,-218 251.621,-213.495 251.138,-208.007 240.23,-202 225.398,-193.831 208.263,-186.31 193.428,-180.352"/>
<polygon fill="#b4951a" stroke="#b4951a" points="417.344,-250.736 420.643,-261.194 420.672,-254.468 424.001,-258.199 424.001,-258.199 424.001,-258.199 420.672,-254.468 427.359,-255.203 417.344,-250.736 417.344,-250.736"/>
<polygon fill="#b4951a" stroke="#b4951a" points="193.366,-180.327 185.704,-172.482 188.712,-178.499 184.059,-176.67 184.059,-176.67 184.059,-176.67 188.712,-178.499 182.413,-180.859 193.366,-180.327 193.366,-180.327"/>
<text text-anchor="middle" x="304.73" y="-206.3" font-family="Times,serif" font-size="14.00">student_groups</text>
</g>
<!-- Event -->
<g id="node11" class="node"><title>Event</title>
<ellipse fill="none" stroke="black" cx="98.2302" cy="-92" rx="31.2965" ry="18"/>
<text text-anchor="middle" x="98.2302" y="-88.3" font-family="Times,serif" font-size="14.00">Event</text>
</g>
<!-- User&#45;&gt;Event -->
<g id="edge10" class="edge"><title>User&#45;&gt;Event</title>
<path fill="none" stroke="#52f7fa" d="M419.109,-251.972C413.285,-245.68 406.166,-239.568 398.23,-236 358.869,-218.302 40.0317,-249.216 10.2302,-218 -22.3451,-183.878 32.741,-136.878 69.4603,-111.333"/>
<ellipse fill="none" stroke="#52f7fa" cx="421.878" cy="-255.2" rx="4.00002" ry="4.00002"/>
<polygon fill="#52f7fa" stroke="#52f7fa" points="69.6066,-111.234 80.4086,-109.345 73.7447,-108.427 77.8827,-105.621 77.8827,-105.621 77.8827,-105.621 73.7447,-108.427 75.3568,-101.896 69.6066,-111.234 69.6066,-111.234"/>
</g>
<!-- Lesson -->
<g id="node12" class="node"><title>Lesson</title>
<ellipse fill="none" stroke="black" cx="412.23" cy="-92" rx="35.6194" ry="18"/>
<text text-anchor="middle" x="412.23" y="-88.3" font-family="Times,serif" font-size="14.00">Lesson</text>
</g>
<!-- User&#45;&gt;Lesson -->
<g id="edge1" class="edge"><title>User&#45;&gt;Lesson</title>
<path fill="none" stroke="#a8439e" d="M472.378,-271.045C534.368,-265.257 654.648,-250.09 680.23,-218 684.663,-212.44 681.068,-209.062 680.23,-202 677.321,-177.486 684.892,-165.246 667.23,-148 637.857,-119.318 522.191,-103.676 457.192,-96.9895"/>
<polygon fill="#a8439e" stroke="#a8439e" points="472.195,-271.061 461.832,-267.474 467.215,-271.509 462.235,-271.956 462.235,-271.956 462.235,-271.956 467.215,-271.509 462.638,-276.438 472.195,-271.061 472.195,-271.061"/>
<polygon fill="#a8439e" stroke="#a8439e" points="457.166,-96.987 447.663,-91.5149 452.191,-96.4898 447.215,-95.9926 447.215,-95.9926 447.215,-95.9926 452.191,-96.4898 446.768,-100.47 457.166,-96.987 457.166,-96.987"/>
<text text-anchor="middle" x="721.73" y="-162.3" font-family="Times,serif" font-size="14.00">teacher_groups</text>
</g>
<!-- User&#45;&gt;Lesson -->
<g id="edge4" class="edge"><title>User&#45;&gt;Lesson</title>
<path fill="none" stroke="#7cb434" d="M472.609,-272.783C575.631,-268.152 850.651,-246.475 767.23,-148 728.153,-101.871 544.668,-94.0665 457.906,-92.9951"/>
<polygon fill="#7cb434" stroke="#7cb434" points="472.333,-272.794 462.153,-268.717 467.337,-273.004 462.341,-273.213 462.341,-273.213 462.341,-273.213 467.337,-273.004 462.53,-277.709 472.333,-272.794 472.333,-272.794"/>
<polygon fill="#7cb434" stroke="#7cb434" points="457.821,-92.9944 447.866,-88.3959 452.821,-92.945 447.822,-92.8957 447.822,-92.8957 447.822,-92.8957 452.821,-92.945 447.777,-97.3955 457.821,-92.9944 457.821,-92.9944"/>
</g>
<!-- User&#45;&gt;Lesson -->
<g id="edge7" class="edge"><title>User&#45;&gt;Lesson</title>
<path fill="none" stroke="#8eda31" d="M447.925,-248.475C459.03,-222.541 471.605,-181.529 459.23,-148 454.678,-135.664 445.989,-124.22 437.308,-115.001"/>
<polygon fill="#8eda31" stroke="#8eda31" points="447.908,-248.513 439.694,-255.779 445.852,-253.071 443.796,-257.629 443.796,-257.629 443.796,-257.629 445.852,-253.071 447.899,-259.479 447.908,-248.513 447.908,-248.513"/>
<polygon fill="#8eda31" stroke="#8eda31" points="437.184,-114.877 433.289,-104.626 433.646,-111.344 430.109,-107.81 430.109,-107.81 430.109,-107.81 433.646,-111.344 426.928,-110.994 437.184,-114.877 437.184,-114.877"/>
<text text-anchor="middle" x="507.73" y="-162.3" font-family="Times,serif" font-size="14.00">student_lessons</text>
</g>
<!-- Grade -->
<g id="node13" class="node"><title>Grade</title>
<ellipse fill="none" stroke="black" cx="626.23" cy="-166" rx="32.2457" ry="18"/>
<text text-anchor="middle" x="626.23" y="-162.3" font-family="Times,serif" font-size="14.00">Grade</text>
</g>
<!-- User&#45;&gt;Grade -->
<g id="edge8" class="edge"><title>User&#45;&gt;Grade</title>
<path fill="none" stroke="#838c80" d="M467.892,-265.067C497.477,-256.047 541.47,-240.261 575.23,-218 586.664,-210.461 597.637,-200.054 606.456,-190.607"/>
<ellipse fill="none" stroke="#838c80" cx="463.784" cy="-266.29" rx="4.00001" ry="4.00001"/>
<polygon fill="#838c80" stroke="#838c80" points="606.63,-190.413 616.665,-185.991 609.975,-186.697 613.32,-182.98 613.32,-182.98 613.32,-182.98 609.975,-186.697 609.976,-179.97 606.63,-190.413 606.63,-190.413"/>
<text text-anchor="middle" x="635.23" y="-206.3" font-family="Times,serif" font-size="14.00">student_grades</text>
</g>
<!-- User&#45;&gt;Grade -->
<g id="edge9" class="edge"><title>User&#45;&gt;Grade</title>
<path fill="none" stroke="#b6348e" d="M446.942,-250.387C456.198,-234.227 470.647,-213.684 489.23,-202 524.133,-180.055 540.547,-195.181 580.23,-184 583.8,-182.994 587.487,-181.838 591.148,-180.613"/>
<ellipse fill="none" stroke="#b6348e" cx="444.984" cy="-253.95" rx="4.00002" ry="4.00002"/>
<polygon fill="#b6348e" stroke="#b6348e" points="591.245,-180.579 602.172,-181.506 595.962,-178.92 600.679,-177.261 600.679,-177.261 600.679,-177.261 595.962,-178.92 599.186,-173.016 591.245,-180.579 591.245,-180.579"/>
<text text-anchor="middle" x="530.23" y="-206.3" font-family="Times,serif" font-size="14.00">teacher_grades</text>
</g>
<!-- GroupStudent -->
<g id="node18" class="node"><title>GroupStudent</title>
<ellipse fill="none" stroke="black" cx="283.23" cy="-92" rx="59.1941" ry="18"/>
<text text-anchor="middle" x="283.23" y="-88.3" font-family="Times,serif" font-size="14.00">GroupStudent</text>
</g>
<!-- User&#45;&gt;GroupStudent -->
<g id="edge5" class="edge"><title>User&#45;&gt;GroupStudent</title>
<path fill="none" stroke="#878de4" d="M415.946,-253.03C410.398,-247.324 404.223,-241.268 398.23,-236 388.216,-227.197 384.648,-226.322 374.23,-218 356,-203.438 349.056,-202.016 334.23,-184 317.865,-164.113 303.943,-138.239 294.801,-119.167"/>
<ellipse fill="none" stroke="#878de4" cx="418.917" cy="-256.14" rx="4.00002" ry="4.00002"/>
<polygon fill="#878de4" stroke="#878de4" points="294.697,-118.943 294.546,-107.978 292.582,-114.412 290.468,-109.881 290.468,-109.881 290.468,-109.881 292.582,-114.412 286.39,-111.783 294.697,-118.943 294.697,-118.943"/>
</g>
<!-- Mailboxer::Message -->
<g id="node19" class="node"><title>Mailboxer::Message</title>
<ellipse fill="none" stroke="black" cx="955.23" cy="-166" rx="83.2649" ry="18"/>
<text text-anchor="middle" x="955.23" y="-162.3" font-family="Times,serif" font-size="14.00">Mailboxer::Message</text>
</g>
<!-- User&#45;&gt;Mailboxer::Message -->
<g id="edge11" class="edge"><title>User&#45;&gt;Mailboxer::Message</title>
<path fill="none" stroke="#ab63af" d="M470.659,-273.416C544.349,-271.316 718.795,-261.717 857.23,-218 869.527,-214.117 895.946,-200.241 918.258,-187.942"/>
<ellipse fill="none" stroke="#ab63af" cx="466.595" cy="-273.522" rx="4" ry="4"/>
<polygon fill="#ab63af" stroke="#ab63af" points="918.455,-187.832 929.382,-186.913 922.827,-185.405 927.198,-182.978 927.198,-182.978 927.198,-182.978 922.827,-185.405 925.014,-179.044 918.455,-187.832 918.455,-187.832"/>
<text text-anchor="middle" x="918.23" y="-206.3" font-family="Times,serif" font-size="14.00">messages</text>
</g>
<!-- Mailboxer::Receipt -->
<g id="node20" class="node"><title>Mailboxer::Receipt</title>
<ellipse fill="none" stroke="black" cx="1136.23" cy="-166" rx="78.9404" ry="18"/>
<text text-anchor="middle" x="1136.23" y="-162.3" font-family="Times,serif" font-size="14.00">Mailboxer::Receipt</text>
</g>
<!-- User&#45;&gt;Mailboxer::Receipt -->
<g id="edge12" class="edge"><title>User&#45;&gt;Mailboxer::Receipt</title>
<path fill="none" stroke="#087e2b" d="M470.333,-272.081C570.57,-266.298 856.577,-247.591 945.23,-218 958.461,-213.584 959.239,-207.078 972.23,-202 981.468,-198.389 1027.34,-188.706 1068.22,-180.438"/>
<ellipse fill="none" stroke="#087e2b" cx="466.322" cy="-272.31" rx="4" ry="4"/>
<polygon fill="#087e2b" stroke="#087e2b" points="1068.41,-180.401 1079.1,-182.837 1073.31,-179.413 1078.21,-178.426 1078.21,-178.426 1078.21,-178.426 1073.31,-179.413 1077.32,-174.014 1068.41,-180.401 1068.41,-180.401"/>
<text text-anchor="middle" x="993.73" y="-206.3" font-family="Times,serif" font-size="14.00">receipts</text>
</g>
<!-- Conversation::ConversationCreation -->
<g id="node4" class="node"><title>Conversation::ConversationCreation</title>
<polygon fill="none" stroke="black" points="1426.48,-293 1211.98,-293 1211.98,-257 1426.48,-257 1426.48,-293"/>
<text text-anchor="middle" x="1319.23" y="-271.3" font-family="Times,serif" font-size="14.00">Conversation::ConversationCreation</text>
</g>
<!-- LessonDate -->
<g id="node5" class="node"><title>LessonDate</title>
<ellipse fill="none" stroke="black" cx="412.23" cy="-18" rx="51.4931" ry="18"/>
<text text-anchor="middle" x="412.23" y="-14.3" font-family="Times,serif" font-size="14.00">LessonDate</text>
</g>
<!-- Conversation -->
<g id="node6" class="node"><title>Conversation</title>
<ellipse fill="none" stroke="black" cx="1136.23" cy="-275" rx="57.2688" ry="18"/>
<text text-anchor="middle" x="1136.23" y="-271.3" font-family="Times,serif" font-size="14.00">Conversation</text>
</g>
<!-- Conversation&#45;&gt;Mailboxer::Message -->
<g id="edge14" class="edge"><title>Conversation&#45;&gt;Mailboxer::Message</title>
<path fill="none" stroke="#f85e42" d="M1103.22,-254.486C1071.6,-235.794 1024,-207.655 991.375,-188.368"/>
<ellipse fill="none" stroke="#f85e42" cx="1106.85" cy="-256.634" rx="4.00002" ry="4.00002"/>
<polygon fill="#f85e42" stroke="#f85e42" points="991.204,-188.266 984.886,-179.304 986.9,-185.722 982.596,-183.177 982.596,-183.177 982.596,-183.177 986.9,-185.722 980.306,-187.051 991.204,-188.266 991.204,-188.266"/>
<text text-anchor="middle" x="1067.23" y="-206.3" font-family="Times,serif" font-size="14.00">messages</text>
</g>
<!-- Conversation&#45;&gt;Mailboxer::Receipt -->
<g id="edge15" class="edge"><title>Conversation&#45;&gt;Mailboxer::Receipt</title>
<path fill="none" stroke="#b5eaf1" d="M1136.23,-246.611C1136.23,-230.613 1136.23,-210.489 1136.23,-194.476"/>
<polygon fill="#b5eaf1" stroke="#b5eaf1" points="1136.23,-246.809 1131.73,-256.809 1136.23,-251.809 1136.23,-256.809 1136.23,-256.809 1136.23,-256.809 1136.23,-251.809 1140.73,-256.809 1136.23,-246.809 1136.23,-246.809"/>
<polygon fill="#b5eaf1" stroke="#b5eaf1" points="1136.23,-194.149 1140.73,-184.149 1136.23,-189.149 1136.23,-184.149 1136.23,-184.149 1136.23,-184.149 1136.23,-189.149 1131.73,-184.149 1136.23,-194.149 1136.23,-194.149"/>
<text text-anchor="middle" x="1157.73" y="-206.3" font-family="Times,serif" font-size="14.00">receipts</text>
</g>
<!-- Mailboxer::Conversation::OptOut -->
<g id="node21" class="node"><title>Mailboxer::Conversation::OptOut</title>
<ellipse fill="none" stroke="black" cx="1364.23" cy="-166" rx="130.457" ry="18"/>
<text text-anchor="middle" x="1364.23" y="-162.3" font-family="Times,serif" font-size="14.00">Mailboxer::Conversation::OptOut</text>
</g>
<!-- Conversation&#45;&gt;Mailboxer::Conversation::OptOut -->
<g id="edge13" class="edge"><title>Conversation&#45;&gt;Mailboxer::Conversation::OptOut</title>
<path fill="none" stroke="#154bed" d="M1168.87,-254.525C1179.67,-248.342 1191.84,-241.648 1203.23,-236 1239.4,-218.061 1281.36,-200.171 1313.37,-187.103"/>
<ellipse fill="none" stroke="#154bed" cx="1165.1" cy="-256.703" rx="4.00002" ry="4.00002"/>
<polygon fill="#154bed" stroke="#154bed" points="1313.7,-186.968 1324.66,-187.378 1318.33,-185.088 1322.97,-183.208 1322.97,-183.208 1322.97,-183.208 1318.33,-185.088 1321.28,-179.038 1313.7,-186.968 1313.7,-186.968"/>
<text text-anchor="middle" x="1300.73" y="-206.3" font-family="Times,serif" font-size="14.00">opt_outs</text>
</g>
<!-- Group&#45;&gt;User -->
<g id="edge17" class="edge"><title>Group&#45;&gt;User</title>
<path fill="none" stroke="#feae8e" d="M114.186,-169.644C63.883,-174.225 -8.88589,-186.412 21.2302,-218 50.1682,-248.353 359.994,-218.777 398.23,-236 405.503,-239.276 412.09,-244.686 417.623,-250.41"/>
<polygon fill="#feae8e" stroke="#feae8e" points="114.256,-169.638 124.598,-173.285 119.239,-169.219 124.221,-168.801 124.221,-168.801 124.221,-168.801 119.239,-169.219 123.845,-164.317 114.256,-169.638 114.256,-169.638"/>
<polygon fill="#feae8e" stroke="#feae8e" points="417.892,-250.718 421.095,-261.206 421.186,-254.479 424.48,-258.241 424.48,-258.241 424.48,-258.241 421.186,-254.479 427.866,-255.276 417.892,-250.718 417.892,-250.718"/>
<text text-anchor="middle" x="43.7302" y="-206.3" font-family="Times,serif" font-size="14.00">students</text>
</g>
<!-- Group&#45;&gt;User -->
<g id="edge20" class="edge"><title>Group&#45;&gt;User</title>
<path fill="none" stroke="#44aa19" d="M122.724,-182.496C105.44,-192.315 90.4511,-205.483 102.23,-218 124.811,-241.996 368.276,-222.272 398.23,-236 405.481,-239.323 412.062,-244.748 417.595,-250.473"/>
<polygon fill="#44aa19" stroke="#44aa19" points="122.998,-182.352 133.942,-181.668 127.42,-180.02 131.843,-177.687 131.843,-177.687 131.843,-177.687 127.42,-180.02 129.744,-173.707 122.998,-182.352 122.998,-182.352"/>
<polygon fill="#44aa19" stroke="#44aa19" points="417.862,-250.777 421.073,-261.262 421.159,-254.535 424.456,-258.294 424.456,-258.294 424.456,-258.294 421.159,-254.535 427.839,-255.327 417.862,-250.777 417.862,-250.777"/>
<text text-anchor="middle" x="124.73" y="-206.3" font-family="Times,serif" font-size="14.00">teachers</text>
</g>
<!-- GroupLesson -->
<g id="node8" class="node"><title>GroupLesson</title>
<ellipse fill="none" stroke="black" cx="274.23" cy="-18" rx="57.2688" ry="18"/>
<text text-anchor="middle" x="274.23" y="-14.3" font-family="Times,serif" font-size="14.00">GroupLesson</text>
</g>
<!-- Group&#45;&gt;GroupLesson -->
<g id="edge18" class="edge"><title>Group&#45;&gt;GroupLesson</title>
<path fill="none" stroke="#400bbe" d="M169.803,-141.178C180.411,-122.097 196.647,-95.1228 214.23,-74 223.812,-62.4897 235.744,-51.0831 246.438,-41.6672"/>
<ellipse fill="none" stroke="#400bbe" cx="167.808" cy="-144.819" rx="4.00002" ry="4.00002"/>
<polygon fill="#400bbe" stroke="#400bbe" points="246.736,-41.4104 257.25,-38.2964 250.525,-38.1482 254.315,-34.8861 254.315,-34.8861 254.315,-34.8861 250.525,-38.1482 251.379,-31.4757 246.736,-41.4104 246.736,-41.4104"/>
</g>
<!-- Group&#45;&gt;Event -->
<g id="edge21" class="edge"><title>Group&#45;&gt;Event</title>
<path fill="none" stroke="#405b4a" d="M137.998,-141.53C131.429,-133.514 124.085,-124.551 117.512,-116.53"/>
<polygon fill="#405b4a" stroke="#405b4a" points="138.09,-141.642 140.947,-152.229 141.259,-145.51 144.428,-149.377 144.428,-149.377 144.428,-149.377 141.259,-145.51 147.909,-146.525 138.09,-141.642 138.09,-141.642"/>
<polygon fill="#405b4a" stroke="#405b4a" points="117.346,-116.327 114.488,-105.74 114.177,-112.46 111.007,-108.592 111.007,-108.592 111.007,-108.592 114.177,-112.46 107.527,-111.445 117.346,-116.327 117.346,-116.327"/>
</g>
<!-- Group&#45;&gt;Lesson -->
<g id="edge19" class="edge"><title>Group&#45;&gt;Lesson</title>
<path fill="none" stroke="#55fb45" d="M195.65,-154.152C243.231,-140.717 323.896,-117.941 372.207,-104.301"/>
<polygon fill="#55fb45" stroke="#55fb45" points="195.61,-154.163 184.763,-152.55 190.798,-155.522 185.986,-156.881 185.986,-156.881 185.986,-156.881 190.798,-155.522 187.209,-161.211 195.61,-154.163 195.61,-154.163"/>
<polygon fill="#55fb45" stroke="#55fb45" points="372.378,-104.252 383.224,-105.866 377.19,-102.894 382.002,-101.535 382.002,-101.535 382.002,-101.535 377.19,-102.894 380.779,-97.2045 372.378,-104.252 372.378,-104.252"/>
</g>
<!-- GroupEvent -->
<g id="node17" class="node"><title>GroupEvent</title>
<ellipse fill="none" stroke="black" cx="125.23" cy="-18" rx="53.4184" ry="18"/>
<text text-anchor="middle" x="125.23" y="-14.3" font-family="Times,serif" font-size="14.00">GroupEvent</text>
</g>
<!-- Group&#45;&gt;GroupEvent -->
<g id="edge22" class="edge"><title>Group&#45;&gt;GroupEvent</title>
<path fill="none" stroke="#b092c3" d="M152.193,-139.992C148.461,-121.689 143.186,-96.2684 138.23,-74 136.208,-64.9134 133.899,-55.0077 131.794,-46.1381"/>
<ellipse fill="none" stroke="#b092c3" cx="152.996" cy="-143.944" rx="4.00001" ry="4.00001"/>
<polygon fill="#b092c3" stroke="#b092c3" points="131.77,-46.039 133.822,-35.2668 130.608,-41.176 129.445,-36.313 129.445,-36.313 129.445,-36.313 130.608,-41.176 125.069,-37.3593 131.77,-46.039 131.77,-46.039"/>
</g>
<!-- Group&#45;&gt;GroupStudent -->
<g id="edge16" class="edge"><title>Group&#45;&gt;GroupStudent</title>
<path fill="none" stroke="#201494" d="M186.359,-148.355C204.69,-137.88 228.467,-124.293 247.876,-113.202"/>
<ellipse fill="none" stroke="#201494" cx="182.651" cy="-150.474" rx="4.00002" ry="4.00002"/>
<polygon fill="#201494" stroke="#201494" points="248.048,-113.104 258.963,-112.05 252.389,-110.624 256.73,-108.143 256.73,-108.143 256.73,-108.143 252.389,-110.624 254.497,-104.236 248.048,-113.104 248.048,-113.104"/>
</g>
<!-- Event::EventQuery -->
<g id="node9" class="node"><title>Event::EventQuery</title>
<polygon fill="none" stroke="black" points="1565.48,-293 1444.98,-293 1444.98,-257 1565.48,-257 1565.48,-293"/>
<text text-anchor="middle" x="1505.23" y="-271.3" font-family="Times,serif" font-size="14.00">Event::EventQuery</text>
</g>
<!-- User::UserQuery -->
<g id="node10" class="node"><title>User::UserQuery</title>
<polygon fill="none" stroke="black" points="1692.48,-293 1583.98,-293 1583.98,-257 1692.48,-257 1692.48,-293"/>
<text text-anchor="middle" x="1638.23" y="-271.3" font-family="Times,serif" font-size="14.00">User::UserQuery</text>
</g>
<!-- Event&#45;&gt;GroupEvent -->
<g id="edge23" class="edge"><title>Event&#45;&gt;GroupEvent</title>
<path fill="none" stroke="#a738a9" d="M107.373,-66.619C109.899,-59.884 112.652,-52.5412 115.224,-45.6829"/>
<ellipse fill="none" stroke="#a738a9" cx="105.897" cy="-70.5555" rx="4.00001" ry="4.00001"/>
<polygon fill="#a738a9" stroke="#a738a9" points="115.303,-45.4719 123.028,-37.6887 117.059,-40.7903 118.814,-36.1086 118.814,-36.1086 118.814,-36.1086 117.059,-40.7903 114.601,-34.5286 115.303,-45.4719 115.303,-45.4719"/>
</g>
<!-- Lesson&#45;&gt;TeacherLesson -->
<g id="edge25" class="edge"><title>Lesson&#45;&gt;TeacherLesson</title>
<path fill="none" stroke="#c85db0" d="M451.163,-81.0597C499.834,-68.6331 583.461,-47.2815 638.803,-33.1517"/>
<ellipse fill="none" stroke="#c85db0" cx="447.092" cy="-82.0992" rx="4.00001" ry="4.00001"/>
<polygon fill="#c85db0" stroke="#c85db0" points="639.103,-33.0751 649.906,-34.9613 643.948,-31.8381 648.792,-30.6012 648.792,-30.6012 648.792,-30.6012 643.948,-31.8381 647.679,-26.241 639.103,-33.0751 639.103,-33.0751"/>
</g>
<!-- Lesson&#45;&gt;User -->
<g id="edge26" class="edge"><title>Lesson&#45;&gt;User</title>
<path fill="none" stroke="#021bbe" d="M378.8,-110.664C365.119,-119.816 350.756,-132.376 343.23,-148 336.286,-162.415 335.563,-169.957 343.23,-184 350.319,-196.985 359.989,-192.382 371.23,-202 388.227,-216.543 404.933,-235.543 417.013,-250.373"/>
<polygon fill="#021bbe" stroke="#021bbe" points="379.138,-110.452 390.001,-108.958 383.375,-107.798 387.613,-105.144 387.613,-105.144 387.613,-105.144 383.375,-107.798 385.224,-101.33 379.138,-110.452 379.138,-110.452"/>
<polygon fill="#021bbe" stroke="#021bbe" points="417.313,-250.748 420.043,-261.368 420.435,-254.653 423.558,-258.558 423.558,-258.558 423.558,-258.558 420.435,-254.653 427.072,-255.748 417.313,-250.748 417.313,-250.748"/>
<text text-anchor="middle" x="365.73" y="-162.3" font-family="Times,serif" font-size="14.00">teachers</text>
</g>
<!-- Lesson&#45;&gt;User -->
<g id="edge27" class="edge"><title>Lesson&#45;&gt;User</title>
<path fill="none" stroke="#7ff7b1" d="M411.036,-120.455C410.705,-129.252 410.393,-139.035 410.23,-148 409.939,-163.997 408.069,-168.147 410.23,-184 413.215,-205.894 420.104,-229.978 425.897,-247.719"/>
<polygon fill="#7ff7b1" stroke="#7ff7b1" points="411.041,-120.328 415.935,-110.514 411.24,-115.331 411.438,-110.335 411.438,-110.335 411.438,-110.335 411.24,-115.331 406.942,-110.156 411.041,-120.328 411.041,-120.328"/>
<polygon fill="#7ff7b1" stroke="#7ff7b1" points="425.954,-247.889 424.878,-258.802 427.548,-252.628 429.143,-257.367 429.143,-257.367 429.143,-257.367 427.548,-252.628 433.408,-255.932 425.954,-247.889 425.954,-247.889"/>
<text text-anchor="middle" x="432.73" y="-162.3" font-family="Times,serif" font-size="14.00">students</text>
</g>
<!-- Lesson&#45;&gt;LessonDate -->
<g id="edge28" class="edge"><title>Lesson&#45;&gt;LessonDate</title>
<path fill="none" stroke="#7749c3" d="M412.23,-65.7923C412.23,-59.5805 412.23,-52.8963 412.23,-46.5786"/>
<ellipse fill="none" stroke="#7749c3" cx="412.23" cy="-69.937" rx="4" ry="4"/>
<polygon fill="#7749c3" stroke="#7749c3" points="412.23,-46.4407 416.73,-36.4406 412.23,-41.4407 412.23,-36.4407 412.23,-36.4407 412.23,-36.4407 412.23,-41.4407 407.73,-36.4407 412.23,-46.4407 412.23,-46.4407"/>
</g>
<!-- Lesson&#45;&gt;GroupLesson -->
<g id="edge24" class="edge"><title>Lesson&#45;&gt;GroupLesson</title>
<path fill="none" stroke="#696bd8" d="M381.16,-74.7895C360.483,-64.0015 333.213,-49.7737 311.388,-38.3865"/>
<ellipse fill="none" stroke="#696bd8" cx="384.961" cy="-76.7725" rx="4.00002" ry="4.00002"/>
<polygon fill="#696bd8" stroke="#696bd8" points="311.268,-38.3242 304.484,-29.7088 306.835,-36.0113 302.402,-33.6985 302.402,-33.6985 302.402,-33.6985 306.835,-36.0113 300.321,-37.6881 311.268,-38.3242 311.268,-38.3242"/>
</g>
<!-- Group::GroupQuery -->
<g id="node14" class="node"><title>Group::GroupQuery</title>
<polygon fill="none" stroke="black" points="1837.48,-293 1710.98,-293 1710.98,-257 1837.48,-257 1837.48,-293"/>
<text text-anchor="middle" x="1774.23" y="-271.3" font-family="Times,serif" font-size="14.00">Group::GroupQuery</text>
</g>
<!-- Lesson::LessonQuery -->
<g id="node15" class="node"><title>Lesson::LessonQuery</title>
<polygon fill="none" stroke="black" points="1990.23,-293 1856.23,-293 1856.23,-257 1990.23,-257 1990.23,-293"/>
<text text-anchor="middle" x="1923.23" y="-271.3" font-family="Times,serif" font-size="14.00">Lesson::LessonQuery</text>
</g>
<!-- Grade::GradeCreation -->
<g id="node16" class="node"><title>Grade::GradeCreation</title>
<polygon fill="none" stroke="black" points="2145.48,-293 2008.98,-293 2008.98,-257 2145.48,-257 2145.48,-293"/>
<text text-anchor="middle" x="2077.23" y="-271.3" font-family="Times,serif" font-size="14.00">Grade::GradeCreation</text>
</g>
</g>
</svg>
